<?xml version="1.0" encoding="iso-8859-1"?>
<!-- Uploaded to: SVG Repo, www.svgrepo.com, Generator: SVG Repo Mixer Tools -->
<svg fill="#000000" height="800px" width="800px" version="1.1" id="Layer_1" xmlns="http://www.w3.org/2000/svg" xmlns:xlink="http://www.w3.org/1999/xlink" 
	 viewBox="0 0 512.001 512.001" xml:space="preserve">
<g>
	<g>
		<path d="M506.197,217.801c-4.864-5.931-12.126-9.37-19.797-9.37h-85.12l-57.933-84.062l-21.103,14.524l47.923,69.538H153.6v-51.2
			c0-14.14-11.46-25.6-25.6-25.6H25.6c-14.14,0-25.6,11.46-25.6,25.6v204.8c0,14.14,11.46,25.6,25.6,25.6h307.2
			c117.854,0,168.422-97.186,178.705-148.582C513.007,231.531,511.061,223.732,506.197,217.801z M25.6,157.232H128v51.2H25.6
			V157.232z M332.8,362.032c-102.4,0-307.2,0-307.2,0v-76.8h440.141C445.013,320.875,405.393,362.032,332.8,362.032z
			 M478.182,259.632H25.6v-25.6H128h358.4C486.4,234.032,484.173,244.664,478.182,259.632z"/>
	</g>
</g>
</svg>