<?xml version="1.0" encoding="UTF-8" ?>
<!DOCTYPE svg PUBLIC "-//W3C//DTD SVG 1.1//EN" "http://www.w3.org/Graphics/SVG/1.1/DTD/svg11.dtd">
<svg width="829pt" height="490pt" viewBox="0 0 829 490" version="1.1" xmlns="http://www.w3.org/2000/svg">
<g id="#0809075a">
<path fill="#080907" opacity="0.35" d=" M 618.43 0.00 L 622.31 0.00 C 618.92 8.56 617.17 17.77 617.16 26.98 C 617.08 36.30 617.46 45.64 616.53 54.93 C 615.92 63.31 613.92 71.81 609.22 78.88 C 606.24 83.48 601.98 87.01 597.95 90.63 C 614.07 86.65 631.68 81.94 642.65 68.51 C 651.61 57.88 653.11 43.37 653.19 30.00 C 653.35 19.99 652.97 9.87 654.93 0.00 L 656.44 0.00 C 652.61 19.04 657.53 39.15 650.69 57.66 C 646.21 69.90 635.77 78.98 623.98 83.97 C 611.06 89.96 596.67 91.50 583.56 96.93 C 575.83 99.70 567.36 100.10 560.01 103.97 C 547.92 109.47 537.48 118.86 531.78 130.96 C 522.49 150.11 521.39 171.75 516.23 192.11 C 512.81 206.26 507.19 220.32 497.11 231.08 C 483.36 246.35 464.86 256.07 449.85 269.91 C 427.07 290.51 406.35 313.34 387.46 337.54 C 364.69 366.50 339.85 393.77 313.66 419.66 C 302.05 431.03 290.50 442.47 278.04 452.92 C 261.81 466.64 244.52 479.12 226.27 490.00 L 223.29 490.00 C 249.56 474.60 273.85 455.88 295.84 434.84 C 323.39 408.70 349.67 381.17 373.89 351.91 C 383.18 340.81 391.80 329.18 401.21 318.18 C 416.30 300.35 432.56 283.52 449.85 267.82 C 465.17 254.05 483.89 244.23 497.41 228.44 C 505.74 218.91 510.72 206.99 513.91 194.87 C 519.07 175.85 520.40 155.88 527.31 137.33 C 530.79 128.02 536.14 119.25 543.68 112.68 C 548.30 108.52 553.81 105.59 559.12 102.42 C 542.47 104.95 524.78 107.01 510.54 116.78 C 500.71 123.63 494.23 134.35 490.85 145.70 C 484.80 165.60 484.85 186.68 480.22 206.88 C 477.47 219.54 472.51 232.05 463.83 241.84 C 451.49 255.78 434.46 263.99 419.41 274.50 C 399.93 287.80 385.58 306.88 371.40 325.38 C 340.41 366.59 303.56 402.86 266.64 438.68 C 247.97 456.82 229.28 475.23 207.74 490.00 L 201.62 490.00 C 222.78 475.85 241.41 458.34 259.57 440.61 C 297.26 403.90 335.29 367.14 367.13 325.08 C 381.61 306.12 396.22 286.58 415.90 272.64 C 431.10 261.74 448.64 253.61 461.21 239.39 C 470.01 229.49 474.56 216.65 477.18 203.85 C 481.75 182.24 481.44 159.53 489.55 138.74 C 494.23 126.46 503.21 115.71 515.12 109.91 C 537.17 98.81 562.90 100.89 585.80 92.48 C 595.65 88.89 604.57 81.88 608.85 72.12 C 614.37 59.86 613.17 46.07 613.31 32.99 C 613.23 21.82 614.39 10.49 618.43 0.00 Z" />
<path fill="#080907" opacity="0.35" d=" M 687.76 0.00 L 689.33 0.00 C 687.72 11.28 688.86 22.70 687.67 34.01 C 687.05 44.14 684.67 54.44 678.88 62.93 C 671.88 73.50 660.86 80.62 649.37 85.50 C 631.58 93.15 612.45 97.36 595.09 106.05 C 585.25 110.95 575.85 117.43 569.49 126.55 C 560.32 139.26 556.38 154.70 552.57 169.66 C 548.22 186.95 543.96 204.84 533.73 219.76 C 523.82 234.29 509.70 245.06 496.47 256.36 C 486.07 264.94 477.10 275.06 467.43 284.42 C 451.82 299.83 435.82 314.88 421.26 331.31 C 411.61 342.10 403.09 353.83 393.85 364.98 C 370.77 393.27 346.40 420.63 319.55 445.41 C 300.93 463.13 279.38 477.44 257.04 490.00 L 253.83 490.00 C 268.68 481.82 283.15 472.88 296.72 462.68 C 309.42 453.22 320.93 442.29 332.18 431.19 C 356.44 407.33 378.72 381.54 399.96 354.98 C 407.59 345.30 415.14 335.54 423.53 326.49 C 437.00 311.64 451.55 297.82 465.85 283.78 C 475.87 274.15 485.09 263.67 495.89 254.86 C 509.87 242.97 524.82 231.45 534.58 215.60 C 544.82 198.79 548.32 179.13 553.39 160.40 C 557.17 146.34 562.09 132.00 571.99 120.99 C 582.42 109.39 597.06 102.85 611.41 97.52 C 628.88 90.97 647.57 86.75 663.29 76.28 C 674.02 69.25 682.00 58.03 684.56 45.40 C 687.75 30.46 685.86 15.08 687.76 0.00 Z" />
<path fill="#080907" opacity="0.35" d=" M 717.36 0.00 L 718.83 0.00 C 716.38 17.30 718.84 35.12 714.12 52.11 C 710.14 66.27 700.09 78.06 687.83 85.87 C 668.98 98.00 647.14 104.11 627.34 114.37 C 616.98 119.80 606.65 126.07 599.36 135.43 C 588.15 149.40 583.18 166.94 577.68 183.67 C 572.83 198.49 567.36 213.45 557.90 226.03 C 546.64 241.20 532.06 253.41 518.90 266.86 C 513.79 271.81 509.19 277.25 504.43 282.53 C 478.97 310.38 448.30 333.23 425.00 363.09 C 401.45 393.25 377.52 423.26 350.33 450.26 C 340.76 459.40 331.21 468.65 320.48 476.46 C 313.87 481.32 306.98 485.80 299.94 490.00 L 296.78 490.00 C 312.04 481.42 326.28 471.00 338.98 458.94 C 367.27 432.71 391.81 402.81 415.63 372.56 C 423.46 362.49 431.31 352.41 440.17 343.22 C 462.75 319.44 488.68 299.00 509.99 273.99 C 526.32 255.65 546.64 240.82 560.17 220.05 C 571.82 201.97 576.30 180.63 583.84 160.75 C 589.15 146.55 597.02 132.68 609.45 123.55 C 630.95 107.70 657.42 101.27 680.59 88.50 C 694.05 81.19 706.17 70.08 711.42 55.36 C 717.72 37.57 714.60 18.37 717.36 0.00 Z" />
<path fill="#080907" opacity="0.35" d=" M 745.30 0.00 L 746.89 0.00 C 741.43 19.63 745.56 40.49 740.12 60.12 C 736.21 74.26 727.02 86.57 715.43 95.41 C 698.07 108.88 677.38 116.85 658.14 127.12 C 646.98 133.16 635.50 139.31 626.89 148.86 C 614.09 162.59 607.68 180.59 600.63 197.62 C 595.16 211.11 588.98 224.49 580.06 236.08 C 568.49 251.37 554.81 264.85 542.19 279.23 C 535.32 287.03 529.30 295.56 522.07 303.05 C 497.22 329.92 466.74 351.04 443.12 379.10 C 434.48 389.55 426.43 400.46 418.03 411.10 C 396.11 439.11 373.43 466.91 346.21 490.00 L 343.72 490.00 C 373.43 465.22 397.67 434.77 421.33 404.37 C 431.58 391.36 441.21 377.78 452.94 366.02 C 478.33 339.65 508.82 318.39 531.67 289.56 C 547.05 269.76 565.94 252.94 580.70 232.62 C 590.39 219.28 596.46 203.81 602.63 188.64 C 608.36 174.57 614.57 160.30 624.80 148.84 C 633.91 138.40 646.34 131.77 658.38 125.30 C 676.58 115.69 695.95 107.99 712.60 95.68 C 724.29 87.04 733.98 75.20 738.22 61.13 C 744.18 41.25 739.84 19.97 745.30 0.00 Z" />
<path fill="#080907" opacity="0.35" d=" M 773.67 0.00 L 775.40 0.00 C 767.00 16.89 768.25 36.21 767.08 54.50 C 766.27 67.29 762.88 80.07 755.99 90.97 C 747.47 104.82 734.54 115.22 720.98 123.85 C 703.05 135.27 683.73 144.30 665.77 155.68 C 654.59 162.57 645.39 172.34 638.31 183.34 C 628.39 198.68 621.64 215.77 612.45 231.52 C 605.18 244.44 595.55 255.78 586.30 267.29 C 575.32 280.69 564.21 294.00 554.17 308.13 C 532.58 337.15 502.49 357.92 476.23 382.31 C 464.62 392.73 454.11 404.35 444.77 416.83 C 425.66 441.58 407.52 467.22 386.02 490.00 L 383.96 490.00 C 401.93 471.07 417.53 450.07 433.32 429.33 C 442.84 416.93 451.95 404.12 463.02 393.02 C 487.82 367.36 517.80 347.26 541.80 320.78 C 551.02 310.85 558.24 299.33 566.79 288.85 C 578.58 273.97 591.08 259.64 602.35 244.36 C 614.58 227.67 622.13 208.25 632.26 190.33 C 639.38 177.70 648.42 165.83 660.41 157.46 C 685.82 140.09 715.41 129.15 738.76 108.74 C 752.32 96.99 762.25 80.66 764.62 62.72 C 767.52 41.83 764.21 19.58 773.67 0.00 Z" />
<path fill="#080907" opacity="0.35" d=" M 804.72 0.00 L 806.62 0.00 C 797.69 11.80 792.89 26.34 791.91 41.04 C 790.90 54.63 791.46 68.42 788.71 81.84 C 785.34 98.68 776.20 114.03 764.02 126.01 C 741.63 148.21 712.58 161.49 686.30 178.27 C 673.12 186.89 662.70 199.06 654.13 212.14 C 643.51 228.27 634.68 245.58 622.93 260.97 C 611.04 276.48 599.25 292.07 588.08 308.11 C 580.32 319.00 573.54 330.63 564.61 340.65 C 540.81 368.05 510.11 388.06 483.73 412.73 C 471.76 423.49 461.38 435.88 451.87 448.83 C 441.52 462.50 431.66 476.54 421.06 490.00 L 419.10 490.00 C 433.71 471.53 446.92 451.97 461.71 433.64 C 491.32 397.71 533.10 374.59 563.56 339.51 C 573.25 328.56 580.49 315.79 589.07 304.01 C 599.62 289.02 610.70 274.42 621.84 259.87 C 633.85 244.07 642.81 226.28 653.83 209.83 C 662.24 197.21 672.51 185.59 685.21 177.17 C 711.50 160.38 740.55 147.09 762.99 124.92 C 773.77 114.15 782.25 100.83 786.15 86.01 C 791.24 67.09 788.17 47.17 792.22 28.09 C 794.36 18.00 798.67 8.36 804.72 0.00 Z" />
<path fill="#080907" opacity="0.35" d=" M 817.83 25.85 C 820.15 17.87 824.31 10.62 829.00 3.82 L 829.00 6.29 C 825.44 12.21 821.81 18.18 819.77 24.83 C 814.39 40.67 815.96 57.60 814.47 74.00 C 813.61 88.68 809.23 103.13 801.75 115.78 C 793.56 129.72 782.06 141.41 769.50 151.47 C 752.16 165.36 732.83 176.44 713.74 187.71 C 700.01 195.82 688.23 206.90 678.25 219.27 C 665.78 234.63 655.37 251.52 643.18 267.09 C 631.16 282.43 620.44 298.74 610.21 315.31 C 602.74 327.07 596.12 339.45 587.08 350.13 C 553.50 390.53 504.49 414.54 471.74 455.75 C 462.87 466.86 454.90 478.64 446.37 490.00 L 444.48 490.00 C 456.41 474.14 467.23 457.33 480.88 442.84 C 512.61 408.94 554.48 386.18 584.64 350.67 C 595.69 337.87 603.40 322.73 612.56 308.62 C 621.74 293.96 631.43 279.60 642.10 265.98 C 655.00 249.47 665.90 231.47 679.43 215.46 C 688.90 204.19 699.96 194.16 712.64 186.61 C 738.13 171.50 764.53 156.75 785.15 135.08 C 796.71 122.99 805.79 108.29 810.04 92.03 C 815.93 70.40 811.27 47.35 817.83 25.85 Z" />
<path fill="#080907" opacity="0.35" d=" M 764.85 178.85 C 790.64 162.21 815.49 141.57 829.00 113.37 L 829.00 116.96 C 814.65 144.47 789.89 164.68 764.16 181.09 C 751.02 189.78 736.59 196.40 724.01 205.93 C 708.39 217.51 695.24 232.01 683.04 247.05 C 674.20 258.24 665.07 269.23 656.81 280.87 C 644.37 298.68 634.61 318.14 623.91 336.99 C 616.94 349.49 608.08 360.88 598.01 371.03 C 574.85 394.89 546.79 413.07 521.30 434.22 C 506.36 446.55 492.19 460.02 480.62 475.62 C 476.94 480.31 473.65 485.29 470.00 490.00 L 468.10 490.00 C 475.59 479.92 482.75 469.55 491.25 460.28 C 524.18 424.04 568.77 400.98 601.78 364.84 C 611.44 354.43 619.41 342.59 626.04 330.05 C 636.08 312.00 645.66 293.59 657.79 276.81 C 666.02 265.76 674.69 255.04 683.31 244.30 C 694.78 230.23 707.17 216.75 721.70 205.77 C 735.15 195.35 750.75 188.29 764.85 178.85 Z" />
<path fill="#080907" opacity="0.35" d=" M 786.73 189.71 C 801.93 180.28 816.48 169.57 829.00 156.74 L 829.00 158.88 C 816.60 171.45 802.19 181.89 787.22 191.19 C 776.69 197.83 765.36 203.09 754.94 209.91 C 739.84 219.39 726.08 230.89 713.58 243.58 C 703.20 254.58 693.11 265.91 684.26 278.19 C 671.45 296.37 662.75 316.95 652.65 336.66 C 646.29 349.64 638.04 361.67 628.35 372.40 C 603.59 399.76 572.15 419.59 543.42 442.34 C 525.59 456.30 508.85 471.83 495.25 490.00 L 493.35 490.00 C 511.57 465.12 535.84 445.66 560.43 427.43 C 587.06 407.46 614.91 388.04 635.46 361.45 C 645.38 348.92 652.16 334.35 659.14 320.08 C 666.94 304.04 674.96 287.95 685.68 273.61 C 704.61 249.11 726.49 226.47 752.64 209.63 C 763.61 202.34 775.58 196.72 786.73 189.71 Z" />
<path fill="#080907" opacity="0.35" d=" M 779.43 215.41 C 795.71 205.52 813.46 198.11 829.00 186.98 L 829.00 188.83 C 813.56 199.69 796.06 207.05 779.97 216.84 C 754.90 231.45 732.01 250.33 714.75 273.79 C 694.36 302.05 687.81 337.85 666.36 365.45 C 647.47 390.24 622.21 409.06 597.21 427.24 C 570.99 446.27 544.17 465.22 522.96 490.00 L 520.95 490.00 C 543.92 462.92 573.42 442.71 601.90 421.95 C 624.92 405.04 647.93 387.30 665.28 364.33 C 686.04 337.43 692.75 302.83 712.02 275.03 C 729.48 250.25 753.37 230.61 779.43 215.41 Z" />
<path fill="#080907" opacity="0.35" d=" M 789.64 227.53 C 802.23 219.55 815.76 213.25 829.00 206.44 L 829.00 208.12 C 815.44 215.05 801.62 221.57 788.80 229.84 C 772.24 240.41 756.98 253.60 746.22 270.18 C 728.81 297.15 723.82 330.12 705.82 356.78 C 689.08 381.97 665.32 401.39 641.15 419.10 C 610.52 441.44 578.11 462.02 552.16 490.00 L 550.09 490.00 C 554.13 486.07 557.85 481.81 561.99 477.98 C 587.14 453.93 616.75 435.37 644.58 414.70 C 666.95 398.04 688.73 379.67 704.32 356.25 C 723.16 328.43 727.86 293.62 747.15 266.04 C 758.32 250.33 773.34 237.67 789.64 227.53 Z" />
<path fill="#080907" opacity="0.35" d=" M 785.83 246.83 C 798.14 234.78 813.51 226.56 829.00 219.35 L 829.00 220.91 C 814.19 228.09 799.31 235.84 787.40 247.44 C 777.49 256.67 770.07 268.27 764.72 280.65 C 755.50 301.54 750.89 324.23 740.38 344.58 C 727.55 369.68 707.08 389.87 685.25 407.27 C 649.57 435.54 609.22 457.90 576.63 490.00 L 574.41 490.00 C 580.92 483.97 587.27 477.74 594.19 472.16 C 623.36 447.86 656.28 428.59 685.87 404.84 C 707.13 387.77 726.86 367.85 739.32 343.32 C 749.53 323.15 754.18 300.78 763.25 280.14 C 768.56 267.74 776.01 256.16 785.83 246.83 Z" />
<path fill="#080907" opacity="0.35" d=" M 801.24 253.25 C 809.25 245.31 819.08 239.64 829.00 234.46 L 829.00 238.41 C 820.23 243.17 811.44 248.18 804.33 255.30 C 794.52 264.45 787.97 276.48 783.27 288.91 C 775.35 309.63 771.62 331.82 761.98 351.89 C 749.62 377.92 729.25 399.13 707.08 417.09 C 674.82 443.18 638.52 463.74 606.40 490.00 L 600.80 490.00 C 631.00 464.81 665.05 444.87 696.32 421.13 C 719.62 403.38 741.62 382.72 755.56 356.61 C 766.07 337.54 770.27 315.97 777.09 295.49 C 782.19 280.02 789.35 264.69 801.24 253.25 Z" />
<path fill="#080907" opacity="0.35" d=" M 802.06 292.05 C 808.67 280.68 818.34 271.49 829.00 263.93 L 829.00 265.76 C 820.20 272.28 811.93 279.74 805.87 288.94 C 795.07 304.99 789.86 323.85 784.24 342.13 C 779.86 356.66 774.92 371.15 767.35 384.37 C 757.44 402.00 743.98 417.50 728.55 430.52 C 706.62 449.04 681.98 463.91 658.82 480.79 C 654.54 483.76 650.48 487.04 646.19 490.00 L 643.58 490.00 C 658.89 478.75 674.43 467.81 690.16 457.16 C 704.48 447.30 718.80 437.35 731.74 425.70 C 745.25 413.70 756.96 399.60 765.88 383.86 C 782.67 355.20 785.06 320.60 802.06 292.05 Z" />
<path fill="#080907" opacity="0.35" d=" M 805.57 332.59 C 811.09 319.99 819.06 308.56 829.00 299.05 L 829.00 301.09 C 821.72 308.65 815.08 316.89 810.35 326.31 C 799.81 346.46 794.93 368.86 786.96 390.02 C 781.66 404.37 774.48 418.05 765.37 430.36 C 756.14 442.94 744.83 453.89 732.47 463.37 C 720.10 472.90 706.91 481.30 693.96 490.00 L 691.13 490.00 C 714.96 474.08 740.15 458.95 758.57 436.53 C 768.56 424.57 776.66 411.06 782.67 396.69 C 791.47 375.74 796.16 353.30 805.57 332.59 Z" />
<path fill="#080907" opacity="0.35" d=" M 807.80 373.73 C 812.99 360.18 819.75 347.14 829.00 335.90 L 829.00 338.24 C 820.08 349.70 813.46 362.76 808.45 376.35 C 800.54 397.19 795.11 419.02 784.99 438.98 C 775.09 458.71 761.12 476.58 743.52 490.00 L 741.13 490.00 C 759.34 476.38 773.79 458.09 783.86 437.77 C 794.14 417.33 799.53 394.96 807.80 373.73 Z" />
<path fill="#080907" opacity="0.35" d=" M 776.13 490.00 C 801.30 454.78 804.95 409.33 829.00 373.52 L 829.00 376.26 C 809.14 407.07 803.79 444.37 786.33 476.33 C 783.75 480.99 781.12 485.65 778.03 490.00 L 776.13 490.00 Z" />
<path fill="#080907" opacity="0.35" d=" M 796.85 490.00 C 807.82 464.20 814.84 436.64 829.00 412.24 L 829.00 415.51 C 815.73 438.98 809.03 465.32 798.52 490.00 L 796.85 490.00 Z" />
<path fill="#080907" opacity="0.35" d=" M 812.90 490.00 C 817.93 477.28 822.83 464.49 829.00 452.26 L 829.00 455.82 C 823.49 466.91 819.11 478.50 814.57 490.00 L 812.90 490.00 Z" />
</g>
</svg>
