<?xml version="1.0" encoding="utf-8"?>

<!DOCTYPE svg PUBLIC "-//W3C//DTD SVG 1.1//EN" "http://www.w3.org/Graphics/SVG/1.1/DTD/svg11.dtd">
<!-- Uploaded to: SVG Repo, www.svgrepo.com, Generator: SVG Repo Mixer Tools -->
<svg height="800px" width="800px" version="1.1" id="_x32_" xmlns="http://www.w3.org/2000/svg" xmlns:xlink="http://www.w3.org/1999/xlink" 
	 viewBox="0 0 512 512"  xml:space="preserve">
<style type="text/css">
	.st0{fill:#000000;}
</style>
<g>
	<path class="st0" d="M293.546,327.831l-0.799-0.591c-1.796-1.69-10.918-6.332-17.659-5.148c-1.344,0.084-1.886,1.014-0.525,3.339
		c4.02,6.872,6.764,12.621,7.127,17.854c0.279,3.931,2.519,3.686,3.259,3.085c0.777-0.642,2.692-2.924,4.281-4.886
		c2.355,2.638,4.104,5.732,5.123,9.18c1.813,6.146,1.12,12.647-1.962,18.286c-3.069,5.639-8.141,9.738-14.299,11.556
		c-6.142,1.809-12.639,1.116-18.278-1.953c-5.638-3.085-9.739-8.158-11.552-14.304l-16.042-54.417
		c1.298-1.158,2.388-2.519,3.196-4.006c1.851-3.39,2.405-7.533,1.226-11.523c-1.176-3.998-3.888-7.186-7.275-9.02
		c-3.386-1.843-7.532-2.409-11.526-1.226c-3.99,1.175-7.173,3.897-9.012,7.278c-1.856,3.382-2.409,7.524-1.23,11.514
		c1.17,4.007,3.888,7.186,7.278,9.02c1.501,0.82,3.149,1.37,4.86,1.648l16.042,54.409c1.808,6.145,1.12,12.638-1.957,18.285
		c-3.069,5.63-8.154,9.739-14.3,11.556c-6.15,1.809-12.638,1.117-18.277-1.952c-5.643-3.077-9.739-8.158-11.557-14.296
		c-1.014-3.449-1.226-7.017-0.68-10.5c2.406,0.786,5.25,1.674,6.248,1.784c0.952,0.101,2.963-0.905,1.066-4.371
		c-2.532-4.591-3.348-10.906-3.699-18.86c-0.119-2.68-1.069-3.17-2.252-2.52c-6.299,2.664-11.438,11.514-12.043,13.907l-0.35,0.938
		c-2.782,7.516-3.047,15.58-0.77,23.29c2.798,9.502,9.118,17.339,17.808,22.056c8.678,4.742,18.678,5.808,28.189,3.001l0.013-0.008
		c9.485-2.799,17.318-9.122,22.043-17.804c1.098-2.012,1.982-4.108,2.679-6.247c1.755,1.42,3.632,2.697,5.643,3.795
		c8.678,4.743,18.692,5.808,28.181,3.01h0.009c9.497-2.807,17.338-9.122,22.064-17.821c4.73-8.682,5.799-18.691,2.997-28.176
		C304.562,339.269,299.967,332.65,293.546,327.831z M225.752,300.551c-0.52,0.938-1.344,1.657-2.46,1.995
		c-1.112,0.322-2.198,0.17-3.141-0.338c-0.942-0.525-1.661-1.361-1.986-2.469c-0.326-1.099-0.178-2.19,0.338-3.145
		c0.515-0.93,1.343-1.648,2.452-1.978c1.116-0.321,2.194-0.169,3.148,0.338c0.935,0.516,1.653,1.344,1.986,2.452
		C226.408,298.523,226.26,299.605,225.752,300.551z"/>
	<path class="st0" d="M503.173,258.908l-0.659-0.778c-1.412-2.114-9.418-8.902-16.434-9.307c-1.361-0.212-2.122,0.583-1.31,3.221
		c2.409,7.811,3.795,14.194,2.933,19.502c-0.651,4.007,1.64,4.278,2.528,3.846c0.922-0.448,3.381-2.282,5.428-3.871
		c1.733,3.178,2.748,6.686,2.95,10.381c0.363,6.56-1.852,12.884-6.239,17.803c-4.396,4.895-10.432,7.812-17.01,8.175
		c-6.56,0.364-12.883-1.86-17.794-6.247c-4.912-4.396-7.812-10.432-8.175-16.992l-3.238-58.128c1.564-0.845,2.976-1.944,4.142-3.254
		c2.638-2.942,4.16-6.941,3.923-11.21c-0.228-4.268-2.19-8.09-5.149-10.718c-2.942-2.646-6.958-4.177-11.218-3.931
		c-4.26,0.228-8.09,2.198-10.718,5.148c-2.638,2.941-4.177,6.957-3.931,11.218c0.228,4.277,2.198,8.082,5.148,10.719
		c1.31,1.166,2.832,2.097,4.472,2.773l3.229,58.119c0.372,6.561-1.851,12.892-6.239,17.804c-4.396,4.903-10.432,7.811-16.992,8.174
		c-6.576,0.364-12.892-1.86-17.803-6.239c-4.912-4.404-7.811-10.44-8.183-17.008c-0.203-3.686,0.422-7.278,1.783-10.635
		c2.224,1.352,4.853,2.908,5.816,3.246c0.93,0.329,3.179-0.195,2.097-4.101c-1.454-5.182-0.777-11.692,0.744-19.714
		c0.516-2.705-0.329-3.415-1.665-3.035c-6.916,1.167-14.135,8.8-15.293,11.049l-0.567,0.854c-4.548,6.864-6.712,14.844-6.248,23.087
		c0.567,10.136,5.039,19.444,12.605,26.206c7.55,6.772,17.305,10.187,27.441,9.621h0.017c10.136-0.567,19.435-5.047,26.198-12.605
		c1.582-1.758,2.951-3.635,4.143-5.613c1.42,1.826,3,3.55,4.751,5.123c7.557,6.762,17.296,10.178,27.441,9.612h0.017
		c10.144-0.558,19.451-5.03,26.215-12.604c6.755-7.55,10.178-17.297,9.611-27.433C511.483,272.916,508.457,265.232,503.173,258.908z
		 M441.876,215.727c-0.752,0.811-1.742,1.335-2.925,1.403c-1.192,0.068-2.24-0.347-3.06-1.066c-0.821-0.744-1.344-1.733-1.403-2.925
		c-0.068-1.183,0.33-2.232,1.065-3.06c0.744-0.811,1.733-1.336,2.925-1.403c1.184-0.059,2.232,0.338,3.06,1.065
		c0.812,0.744,1.336,1.75,1.404,2.925C443,213.858,442.594,214.898,441.876,215.727z"/>
	<circle class="st0" cx="106.872" cy="178.886" r="14.143"/>
	<path class="st0" d="M300.647,244.859c28.388-13.518,94.529-15.538,100.608-16.9c6.086-1.344,12.165-30.408,4.726-37.17
		c-55.406-56.767-157.37-100.692-251.312-88.536c-75.935,9.84-112.087,59.32-120.685,86.566c-0.084-0.085-0.156-0.178-0.24-0.262
		c-3.559-3.56-8.534-5.783-13.974-5.783c-5.448,0-10.415,2.223-13.982,5.783c-3.563,3.567-5.79,8.538-5.786,13.982
		c-0.004,5.444,2.223,10.407,5.786,13.974c3.568,3.567,8.535,5.79,13.982,5.79c5.44,0,10.416-2.223,13.974-5.79
		c0.858-0.846,1.623-1.784,2.312-2.782c3.986,8.792,9.638,16.688,16.532,23.721L16.1,279.789c-3.825,4.464-3.31,11.184,1.158,15.014
		c4.459,3.821,11.18,3.298,15.005-1.166l36.66-42.539c33.24,22.968,81.261,32.944,118.863,31.609
		C222.226,281.497,272.264,258.376,300.647,244.859z M27.293,210.063c-1.94,1.936-4.574,3.119-7.524,3.119
		c-2.958,0-5.584-1.183-7.528-3.119c-1.936-1.945-3.114-4.566-3.114-7.524s1.179-5.588,3.114-7.532
		c1.944-1.919,4.57-3.111,7.528-3.12c2.951,0.009,5.584,1.201,7.524,3.12c1.931,1.944,3.119,4.573,3.119,7.532
		S29.224,208.118,27.293,210.063z M347.701,179.038c4.057,0,7.346,3.288,7.346,7.337c0,4.058-3.289,7.354-7.346,7.354
		c-4.058,0-7.347-3.296-7.347-7.354C340.354,182.327,343.643,179.038,347.701,179.038z M303.687,144.775
		c4.328,0,7.837,3.508,7.837,7.836c0,4.328-3.509,7.837-7.837,7.837c-4.328,0-7.837-3.508-7.837-7.837
		C295.85,148.283,299.358,144.775,303.687,144.775z M247.614,152.003c5.993,0,10.854,4.861,10.854,10.854
		c0,5.994-4.862,10.854-10.854,10.854c-5.994,0-10.855-4.86-10.855-10.854C236.759,156.863,241.62,152.003,247.614,152.003z
		 M201.786,120.648c5.33,0,9.65,4.32,9.65,9.645c0,5.334-4.321,9.646-9.65,9.646c-5.326,0-9.645-4.312-9.645-9.646
		C192.14,124.968,196.46,120.648,201.786,120.648z M169.383,170.178c5.618,0.761,9.553,5.918,8.804,11.523
		c-0.752,5.613-5.905,9.544-11.518,8.792c-5.61-0.752-9.549-5.9-8.8-11.514C158.621,173.374,163.778,169.434,169.383,170.178z
		 M106.872,149.991c15.956,0,28.895,12.934,28.895,28.895c0,15.952-12.939,28.886-28.895,28.886
		c-15.957,0-28.895-12.934-28.895-28.886C77.977,162.925,90.915,149.991,106.872,149.991z M181.082,270.659
		c-44.17,0-94.774-14.972-121.154-43.208c25.716,5.275,59.164,5.216,98.524,2.24c1.289,16.654,6.446,29.115,12.608,29.115
		c6.441,0,11.78-13.585,12.76-31.346c10.847-1.065,22.06-2.283,33.616-3.635c0.765-0.085,1.526-0.186,2.291-0.271
		c1.792,14.338,6.56,24.6,12.156,24.6c6.01,0,11.057-11.818,12.507-27.829c9.468-1.311,18.957-2.68,28.43-3.999
		c2.316,10.018,6.268,16.629,10.77,16.629c4.908,0,9.177-7.922,11.37-19.545c35.341-4.346,69.887-6.594,101.035-0.524
		c-0.296,1.302-0.642,2.519-1.006,3.551c-1.843,0.152-4.092,0.321-6.188,0.49c-22.44,1.758-69.147,5.41-93.384,16.95
		c-22.3,10.618-74.528,35.489-108.064,36.673C185.305,270.625,183.196,270.659,181.082,270.659z"/>
</g>
</svg>