<?xml version="1.0" encoding="UTF-8" ?>
<!DOCTYPE svg PUBLIC "-//W3C//DTD SVG 1.1//EN" "http://www.w3.org/Graphics/SVG/1.1/DTD/svg11.dtd">
<svg width="1244pt" height="835pt" viewBox="0 0 1244 835" version="1.1" xmlns="http://www.w3.org/2000/svg">
<g id="#fefefeff">
</g>
<g id="#230e10ff">
<path fill="#230e10" opacity="1.00" d=" M 216.62 0.00 L 220.56 0.00 C 220.87 30.04 224.84 59.93 224.37 89.98 C 223.76 108.40 221.59 126.88 216.35 144.60 C 209.81 167.63 197.99 189.16 181.92 206.93 C 173.53 215.89 164.36 224.06 155.22 232.23 C 128.42 256.73 101.79 281.59 78.48 309.51 C 61.79 329.94 44.70 350.17 30.22 372.26 C 19.74 389.25 9.76 407.20 6.31 427.11 C 2.70 444.76 4.74 463.31 11.14 480.08 C 18.89 499.39 33.35 515.77 51.37 526.12 C 50.66 526.36 49.23 526.86 48.52 527.11 C 49.26 528.15 49.98 529.20 50.76 530.22 C 34.86 521.57 20.91 508.72 12.49 492.55 C 7.15 482.43 2.77 471.38 2.20 459.84 C 2.14 458.13 2.11 456.43 2.09 454.73 C 2.00 448.05 1.71 441.38 2.00 434.70 C 2.05 433.08 2.11 431.46 2.20 429.85 C 3.14 416.01 9.04 403.15 15.02 390.84 C 29.12 362.98 49.27 338.90 68.87 314.81 C 95.26 281.78 126.35 252.94 157.65 224.66 C 165.69 217.73 173.45 210.43 180.53 202.51 C 190.74 190.85 199.01 177.58 205.39 163.47 C 214.84 141.55 219.31 117.76 220.39 93.99 C 221.10 62.60 217.37 31.35 216.62 0.00 Z" />
</g>
<g id="#1c090bff">
<path fill="#1c090b" opacity="1.00" d=" M 244.51 0.00 L 248.50 0.00 C 249.75 37.06 254.31 73.93 255.40 111.00 C 255.88 132.30 254.18 153.59 251.38 174.68 C 248.40 192.98 244.85 211.28 238.87 228.86 C 235.87 237.41 231.50 245.60 225.17 252.15 C 213.60 265.11 198.24 273.65 183.57 282.56 C 162.99 294.67 143.54 308.77 126.01 325.00 C 106.19 343.71 89.04 365.36 76.23 389.46 C 68.03 405.46 63.86 424.05 67.41 441.89 C 69.04 451.12 72.85 459.98 78.58 467.40 C 90.64 482.48 109.18 490.42 127.56 494.65 C 141.64 498.34 156.36 498.12 170.79 497.25 C 173.88 497.44 176.78 498.59 179.51 499.99 C 161.10 502.76 142.01 502.63 123.95 497.77 C 105.81 493.37 87.61 485.10 75.73 470.22 C 63.88 455.59 60.61 435.72 62.83 417.44 C 65.81 396.52 76.98 377.97 89.12 361.12 C 104.66 338.75 124.33 319.46 145.94 302.99 C 160.45 291.80 176.16 282.31 191.86 272.92 C 203.98 265.43 216.11 257.32 225.05 246.03 C 231.85 238.05 235.36 227.97 238.21 218.03 C 243.29 199.86 246.89 181.26 248.95 162.51 C 252.86 130.13 251.85 97.38 248.87 64.98 C 247.30 43.32 245.22 21.70 244.51 0.00 Z" />
</g>
<g id="#1c0f10ff">
<path fill="#1c0f10" opacity="1.00" d=" M 279.46 0.00 L 283.43 0.00 C 283.95 5.57 284.51 11.13 284.60 16.73 C 286.00 35.54 288.21 54.28 290.28 73.02 C 293.37 98.16 297.45 123.32 305.40 147.43 C 312.17 169.52 326.47 189.73 346.76 201.25 C 359.53 208.51 373.79 212.79 388.25 215.05 C 412.91 219.60 438.09 219.02 463.00 220.94 C 524.33 225.46 585.76 243.08 636.75 278.23 C 651.11 287.50 663.32 299.62 674.95 312.04 C 698.70 338.88 716.70 370.04 735.97 400.08 C 747.31 417.82 758.86 435.49 772.11 451.89 C 792.02 476.47 816.64 497.19 844.27 512.61 C 872.29 528.72 903.31 539.16 934.96 545.38 C 957.27 549.40 979.97 551.59 1001.81 557.95 C 1022.99 564.03 1043.71 572.50 1061.96 584.99 C 1089.69 603.78 1110.66 631.27 1124.41 661.60 C 1133.34 679.98 1144.46 697.53 1158.86 712.15 C 1171.36 725.60 1186.00 737.08 1202.13 745.88 C 1215.34 753.21 1229.57 758.49 1244.00 762.87 L 1244.00 766.94 C 1223.99 761.41 1204.71 753.11 1187.33 741.70 C 1170.83 730.56 1156.11 716.81 1143.74 701.22 C 1133.77 688.54 1125.78 674.43 1119.04 659.81 C 1107.05 635.10 1090.56 612.20 1068.87 595.14 C 1052.59 582.61 1034.20 572.88 1014.78 566.26 C 991.38 557.71 966.58 554.36 942.06 550.74 C 907.78 545.07 874.20 534.20 843.76 517.31 C 814.03 500.69 787.61 478.23 766.41 451.59 C 742.43 420.81 723.32 386.68 701.67 354.31 C 683.79 327.57 663.31 301.79 636.67 283.28 C 617.96 270.00 597.60 259.10 576.35 250.47 C 540.15 235.92 501.47 228.02 462.67 224.86 C 437.43 223.26 412.00 223.19 386.98 219.07 C 366.51 215.85 346.23 208.29 330.39 194.61 C 323.15 188.80 317.54 181.27 312.65 173.46 C 303.38 158.19 298.83 140.71 294.70 123.50 C 288.33 95.38 285.54 66.62 282.51 38.00 C 281.39 25.34 280.28 12.68 279.46 0.00 Z" />
<path fill="#1c0f10" opacity="1.00" d=" M 362.46 0.00 L 366.36 0.00 C 367.23 28.86 374.07 57.97 389.16 82.81 C 403.74 107.34 425.69 126.82 450.15 141.19 C 449.70 142.49 449.26 143.79 448.82 145.10 C 434.97 137.13 422.17 127.39 410.60 116.39 C 402.70 108.22 395.31 99.52 389.07 90.00 C 371.65 63.42 363.02 31.64 362.46 0.00 Z" />
</g>
<g id="#1d0c0eff">
<path fill="#1d0c0e" opacity="1.00" d=" M 321.32 0.00 L 325.29 0.00 C 329.30 33.71 332.53 68.47 347.36 99.53 C 355.46 116.65 367.53 131.83 382.17 143.82 C 402.35 160.62 427.19 170.53 452.06 178.10 C 494.56 190.73 537.80 200.72 580.09 214.02 C 602.33 221.02 624.18 229.19 645.63 238.31 C 661.57 245.32 677.12 253.46 691.11 263.91 C 707.28 275.61 720.44 290.92 731.82 307.20 C 742.49 322.13 751.22 338.34 759.41 354.74 C 777.03 388.23 799.71 419.88 830.06 442.97 C 838.55 449.44 847.49 455.33 856.83 460.50 C 856.00 461.62 855.18 462.75 854.38 463.89 C 822.23 446.43 795.59 419.96 775.22 389.77 C 766.07 376.18 758.15 361.81 750.92 347.12 C 737.76 322.11 722.28 297.89 701.86 278.14 C 685.48 263.27 666.17 251.91 646.03 242.92 C 628.56 235.35 610.81 228.36 592.76 222.30 C 551.80 208.48 509.63 198.78 468.07 187.02 C 442.97 180.17 417.86 172.05 395.48 158.51 C 382.50 150.21 370.45 140.25 360.68 128.28 C 348.31 113.19 339.98 95.15 334.36 76.57 C 327.12 51.63 324.23 25.72 321.32 0.00 Z" />
</g>
<g id="#1e0b0dff">
<path fill="#1e0b0d" opacity="1.00" d=" M 401.22 0.00 L 405.04 0.00 C 408.71 22.36 415.42 44.44 426.83 64.12 C 440.55 88.42 461.14 108.54 485.05 122.78 C 503.91 134.34 524.79 142.16 545.96 148.29 C 567.10 154.45 588.84 158.21 610.63 161.20 C 625.68 162.93 640.92 164.35 656.05 162.68 C 674.57 161.58 692.87 157.21 709.87 149.79 C 724.19 143.52 737.50 135.11 749.83 125.53 C 751.03 126.33 752.24 127.14 753.47 127.95 C 742.04 136.80 729.95 144.89 716.84 151.02 C 691.84 163.28 663.68 168.01 635.99 167.43 C 614.74 166.42 593.69 162.94 572.83 158.94 C 548.95 153.93 525.34 147.11 503.11 136.94 C 479.50 126.19 457.72 110.96 440.85 91.14 C 418.67 65.72 406.23 33.06 401.22 0.00 Z" />
</g>
<g id="#271c1cff">
<path fill="#271c1c" opacity="1.00" d=" M 435.39 0.00 L 439.31 0.00 C 443.75 26.76 455.15 52.55 472.71 73.30 C 485.45 88.25 501.44 100.21 518.90 109.11 C 515.89 108.34 512.75 108.16 509.69 108.74 C 491.60 98.94 475.82 85.01 463.45 68.59 C 454.48 56.42 447.70 42.75 442.50 28.58 C 439.34 19.29 436.32 9.82 435.39 0.00 Z" />
</g>
<g id="#29141aff">
<path fill="#29141a" opacity="1.00" d=" M 477.21 0.00 L 481.22 0.00 C 482.92 9.66 485.39 19.28 489.70 28.14 C 494.66 38.32 501.26 47.71 509.05 55.93 C 514.86 61.54 521.23 66.56 527.81 71.24 C 525.48 70.40 523.09 69.80 520.69 69.20 C 520.65 69.70 520.57 70.70 520.53 71.20 C 496.97 54.85 481.13 28.35 477.21 0.00 Z" />
</g>
<g id="#280e0fff">
<path fill="#280e0f" opacity="1.00" d=" M 680.35 0.00 L 684.47 0.00 C 677.29 25.84 666.44 52.32 645.28 69.87 C 644.91 68.39 644.53 66.92 644.15 65.46 C 663.35 48.53 673.53 24.11 680.35 0.00 Z" />
</g>
<g id="#231315ff">
<path fill="#231315" opacity="1.00" d=" M 784.25 0.00 L 788.48 0.00 C 783.96 8.68 776.03 14.62 768.47 20.47 C 762.42 25.11 757.76 31.20 753.22 37.24 C 742.52 51.71 730.64 65.24 718.70 78.69 C 713.20 85.04 707.72 91.44 701.52 97.13 C 700.61 96.23 699.70 95.33 698.80 94.43 C 709.53 83.91 718.79 72.02 728.88 60.90 C 737.75 50.70 746.19 40.11 754.15 29.18 C 759.27 22.29 766.17 17.09 772.91 11.90 C 777.29 8.54 780.86 4.32 784.25 0.00 Z" />
</g>
<g id="#2b1b1cff">
<path fill="#2b1b1c" opacity="1.00" d=" M 1069.10 0.00 L 1073.25 0.00 C 1067.85 13.69 1057.07 24.14 1049.50 36.54 C 1042.40 48.46 1037.54 62.02 1037.42 76.01 C 1036.77 92.77 1042.86 109.16 1052.10 122.93 C 1066.06 143.49 1085.93 159.14 1106.93 172.01 C 1114.70 176.85 1122.84 181.07 1131.08 185.05 C 1130.65 186.37 1130.24 187.69 1129.84 189.02 C 1118.04 183.65 1106.71 177.28 1095.95 170.08 C 1077.27 157.57 1059.46 142.90 1047.32 123.73 C 1038.44 109.87 1032.69 93.61 1033.26 77.00 C 1032.92 60.52 1039.48 44.80 1048.04 31.01 C 1055.03 20.65 1063.60 11.33 1069.10 0.00 Z" />
</g>
<g id="#1a0b0bff">
<path fill="#1a0b0b" opacity="1.00" d=" M 596.12 86.87 C 613.76 84.63 630.73 77.15 644.15 65.46 C 644.53 66.92 644.91 68.39 645.28 69.87 C 627.30 84.98 603.37 92.35 580.02 91.62 C 558.71 90.96 537.93 83.40 520.53 71.20 C 520.57 70.70 520.65 69.70 520.69 69.20 C 523.09 69.80 525.48 70.40 527.81 71.24 C 548.00 83.90 572.39 90.04 596.12 86.87 Z" />
</g>
<g id="#271819ff">
<path fill="#271819" opacity="1.00" d=" M 860.08 73.38 C 881.51 71.35 903.48 75.52 922.73 85.19 C 937.98 92.70 951.29 103.84 962.17 116.84 C 976.80 132.86 992.39 147.96 1007.99 163.03 C 1018.73 173.30 1029.69 183.43 1041.65 192.30 C 1059.15 205.62 1078.34 216.50 1098.07 226.16 C 1097.74 226.59 1097.08 227.45 1096.75 227.89 C 1098.14 229.31 1099.55 230.73 1101.14 231.96 C 1071.35 218.52 1043.13 201.16 1018.95 179.06 C 1008.10 169.24 997.92 158.73 987.14 148.86 C 975.37 137.62 964.43 125.55 953.46 113.54 C 941.24 100.36 926.02 89.88 909.09 83.77 C 892.36 77.44 874.14 76.40 856.46 77.83 C 838.32 79.88 820.58 85.25 804.17 93.22 C 785.65 102.25 769.77 115.56 753.47 127.95 C 752.24 127.14 751.03 126.33 749.83 125.53 C 767.11 112.35 783.97 98.21 803.74 88.84 C 821.41 80.46 840.49 74.61 860.08 73.38 Z" />
</g>
<g id="#100304ff">
<path fill="#100304" opacity="1.00" d=" M 645.19 125.25 C 665.37 119.91 683.75 108.78 698.80 94.43 C 699.70 95.33 700.61 96.23 701.52 97.13 C 680.93 117.11 653.63 130.07 625.05 132.95 C 606.89 134.67 588.49 133.67 570.61 130.07 C 549.40 126.06 528.56 119.36 509.69 108.74 C 512.75 108.16 515.89 108.34 518.90 109.11 C 536.05 117.70 554.57 123.36 573.43 126.73 C 597.08 131.31 621.85 131.73 645.19 125.25 Z" />
</g>
<g id="#130606ff">
<path fill="#130606" opacity="1.00" d=" M 450.15 141.19 C 466.88 151.21 485.18 158.16 503.61 164.37 C 562.34 183.92 622.79 197.67 683.30 210.46 C 693.80 212.86 704.61 213.59 715.06 216.23 C 734.04 220.62 752.67 228.55 767.18 241.81 C 781.89 254.90 792.04 272.57 797.83 291.27 C 801.32 301.78 803.16 312.76 806.73 323.24 C 812.55 340.54 821.17 357.02 833.03 370.96 C 837.61 376.83 842.86 382.16 848.69 386.80 C 848.79 388.47 848.57 390.13 848.09 391.74 C 828.40 376.03 813.95 354.32 805.27 330.79 C 799.53 316.29 797.48 300.67 791.97 286.10 C 786.44 271.82 778.38 258.35 767.50 247.49 C 753.10 233.45 734.33 224.63 714.87 220.17 C 706.26 218.01 697.42 217.07 688.69 215.55 C 627.35 202.77 566.12 188.87 506.47 169.51 C 486.54 163.21 466.98 155.52 448.82 145.10 C 449.26 143.79 449.70 142.49 450.15 141.19 Z" />
</g>
<g id="#1d0a0aff">
<path fill="#1d0a0a" opacity="1.00" d=" M 1131.08 185.05 C 1166.28 201.43 1205.29 208.78 1244.00 208.78 L 1244.00 212.66 C 1204.90 212.82 1165.46 205.40 1129.84 189.02 C 1130.24 187.69 1130.65 186.37 1131.08 185.05 Z" />
</g>
<g id="#140a0bff">
<path fill="#140a0b" opacity="1.00" d=" M 1096.75 227.89 C 1097.08 227.45 1097.74 226.59 1098.07 226.16 C 1118.16 235.99 1139.51 243.33 1161.46 247.74 C 1188.52 253.79 1216.37 254.79 1244.00 254.38 L 1244.00 258.28 C 1219.50 258.71 1194.88 257.86 1170.71 253.60 C 1146.72 249.41 1123.17 242.39 1101.14 231.96 C 1099.55 230.73 1098.14 229.31 1096.75 227.89 Z" />
</g>
<g id="#221415ff">
<path fill="#221415" opacity="1.00" d=" M 427.02 281.08 C 447.95 272.44 470.38 267.38 493.01 266.57 C 514.47 266.40 535.97 270.29 555.94 278.19 C 574.62 285.62 592.33 295.53 608.36 307.66 C 620.56 316.63 630.98 327.67 641.45 338.53 C 658.70 357.89 674.04 378.85 689.11 399.93 C 713.02 434.36 735.43 470.13 764.01 500.99 C 775.06 512.26 785.99 523.72 798.36 533.57 C 830.52 560.75 867.89 582.29 908.57 593.67 C 922.72 597.92 937.41 599.84 951.72 603.43 C 971.22 608.54 990.12 616.17 1007.39 626.60 C 1020.99 634.57 1033.31 644.47 1045.22 654.75 C 1059.00 667.02 1071.04 681.06 1082.73 695.30 C 1087.54 701.14 1091.95 707.30 1096.99 712.97 C 1121.58 741.69 1151.99 765.73 1186.55 781.30 C 1204.82 789.53 1224.05 796.06 1244.00 798.51 L 1244.00 802.42 C 1237.62 801.57 1231.19 800.90 1224.96 799.22 C 1205.28 794.00 1186.12 786.61 1168.29 776.76 C 1138.87 760.94 1113.20 738.72 1091.68 713.29 C 1077.66 696.08 1064.10 678.36 1047.88 663.12 C 1035.52 651.61 1022.48 640.71 1007.99 631.96 C 989.86 620.64 969.97 612.09 949.18 607.10 C 934.05 603.32 918.48 601.31 903.62 596.47 C 864.13 584.92 827.84 563.93 796.40 537.58 C 783.10 526.63 771.05 514.29 759.05 501.96 C 734.99 475.43 715.03 445.57 694.98 415.99 C 682.63 397.85 669.80 380.03 656.19 362.82 C 646.66 351.08 637.17 339.25 626.21 328.78 C 599.39 302.58 565.82 282.74 529.17 274.15 C 505.53 268.97 480.72 269.41 457.29 275.42 C 433.79 281.02 411.78 291.62 391.29 304.23 C 370.51 317.07 350.80 332.49 336.47 352.50 C 328.65 362.76 323.16 374.51 316.46 385.49 C 306.08 403.43 294.85 420.88 282.57 437.57 C 258.52 471.13 220.26 493.92 179.51 499.99 C 176.78 498.59 173.88 497.44 170.79 497.25 C 208.20 493.20 244.24 475.55 269.35 447.37 C 288.46 424.66 303.81 399.14 318.55 373.48 C 324.12 363.35 329.88 353.24 337.31 344.34 C 346.38 333.43 356.69 323.56 368.00 314.99 C 386.18 301.33 406.01 289.82 427.02 281.08 Z" />
</g>
<g id="#140506ff">
<path fill="#140506" opacity="1.00" d=" M 1165.93 306.22 C 1191.82 302.59 1217.98 301.85 1244.00 299.53 L 1244.00 303.38 C 1210.34 306.21 1176.45 307.39 1143.16 313.58 C 1132.54 315.71 1121.58 317.10 1111.66 321.71 C 1104.02 325.37 1099.36 333.12 1097.19 341.05 C 1090.61 365.83 1091.87 393.02 1078.97 415.88 C 1072.93 427.36 1061.40 435.00 1049.05 438.22 C 1034.04 442.02 1018.39 441.93 1003.02 441.39 C 973.81 438.95 945.67 430.24 917.15 424.04 C 907.21 421.57 897.52 418.24 887.85 414.89 C 889.35 414.02 890.85 413.16 892.35 412.28 C 909.66 418.54 927.70 422.34 945.54 426.71 C 958.96 430.14 972.48 433.23 986.16 435.44 C 1000.63 438.05 1015.40 438.03 1030.04 437.48 C 1043.52 436.59 1057.65 433.25 1067.93 423.96 C 1077.41 414.82 1081.81 401.86 1084.65 389.31 C 1088.02 373.90 1089.23 358.10 1092.78 342.73 C 1094.73 335.08 1097.76 327.16 1104.07 322.03 C 1110.57 316.69 1119.03 314.71 1127.03 312.77 C 1139.90 310.08 1152.89 307.98 1165.93 306.22 Z" />
</g>
<g id="#231314ff">
<path fill="#231314" opacity="1.00" d=" M 467.27 335.33 C 479.96 327.47 494.13 321.53 509.09 320.09 C 527.45 317.92 545.77 323.65 561.85 332.18 C 578.31 341.01 593.27 352.39 607.15 364.84 C 634.16 388.96 656.97 417.24 679.59 445.39 C 692.13 461.21 704.08 477.49 716.73 493.22 C 726.78 506.41 737.78 518.83 748.61 531.38 C 771.28 556.19 796.74 578.48 824.43 597.54 C 847.79 613.36 873.19 626.36 900.18 634.73 C 911.03 638.23 922.25 640.41 933.18 643.66 C 965.13 652.64 995.76 667.37 1021.41 688.60 C 1035.48 700.12 1047.93 713.44 1060.14 726.88 C 1070.13 737.54 1080.31 748.05 1091.03 757.99 C 1106.22 771.37 1122.81 783.12 1140.16 793.55 C 1138.95 794.42 1137.77 795.30 1136.59 796.19 C 1119.31 786.05 1103.11 774.12 1088.06 760.92 C 1076.93 750.39 1065.99 739.64 1055.82 728.17 C 1042.47 713.86 1029.00 699.52 1013.42 687.59 C 989.03 668.70 960.61 655.28 930.89 647.24 C 919.44 643.90 907.69 641.64 896.41 637.73 C 869.28 629.05 843.76 615.79 820.30 599.71 C 792.02 580.23 766.27 557.19 743.31 531.69 C 717.70 503.32 695.54 472.12 671.69 442.32 C 646.77 411.20 621.02 380.21 589.55 355.43 C 577.01 345.83 563.74 336.98 549.23 330.66 C 535.82 325.08 520.88 322.07 506.42 324.63 C 487.99 327.30 471.34 336.63 456.54 347.51 C 447.17 354.02 438.99 362.01 430.01 369.02 C 387.36 404.76 344.00 439.65 301.12 475.13 C 287.76 485.95 274.81 497.29 261.33 507.97 C 259.53 507.62 257.73 507.28 255.93 506.93 C 264.57 500.29 272.91 493.28 281.24 486.26 C 327.25 448.25 373.53 410.57 419.47 372.48 C 435.16 359.80 449.91 345.78 467.27 335.33 Z" />
</g>
<g id="#240f10ff">
<path fill="#240f10" opacity="1.00" d=" M 1196.98 355.98 C 1211.46 347.35 1227.73 342.41 1244.00 338.44 L 1244.00 342.54 C 1228.61 346.71 1213.04 351.12 1199.23 359.32 C 1184.79 367.74 1172.83 380.51 1165.66 395.63 C 1156.95 414.27 1153.27 434.70 1146.95 454.18 C 1141.76 469.60 1135.86 486.07 1122.45 496.35 C 1121.49 495.43 1120.55 494.52 1119.62 493.62 C 1128.85 486.27 1134.60 475.65 1138.78 464.81 C 1147.32 443.34 1151.02 420.28 1159.74 398.88 C 1166.92 380.95 1180.28 365.65 1196.98 355.98 Z" />
</g>
<g id="#231515ff">
<path fill="#231515" opacity="1.00" d=" M 848.69 386.80 C 861.57 397.82 876.47 406.40 892.35 412.28 C 890.85 413.16 889.35 414.02 887.85 414.89 C 873.40 409.54 859.84 401.73 848.09 391.74 C 848.57 390.13 848.79 388.47 848.69 386.80 Z" />
</g>
<g id="#3a2c2eff">
<path fill="#3a2c2e" opacity="1.00" d=" M 1231.81 410.53 C 1235.03 406.47 1239.56 403.82 1244.00 401.28 L 1244.00 406.23 C 1241.04 408.33 1238.04 410.39 1235.41 412.90 C 1234.20 412.10 1232.99 411.31 1231.81 410.53 Z" />
</g>
<g id="#fdfdfdff">
</g>
<g id="#211013ff">
<path fill="#211013" opacity="1.00" d=" M 1231.81 410.53 C 1232.99 411.31 1234.20 412.10 1235.41 412.90 C 1227.91 421.03 1224.42 431.83 1221.51 442.28 C 1215.05 467.86 1222.42 498.03 1244.00 514.43 L 1244.00 519.37 C 1235.75 513.94 1228.96 506.46 1224.35 497.73 C 1214.35 479.25 1212.75 456.73 1218.77 436.72 C 1221.58 427.35 1225.29 417.98 1231.81 410.53 Z" />
</g>
<g id="#d1bfbfff">
</g>
<g id="#836f75ff">
</g>
<g id="#ccb8baff">
</g>
<g id="#0f0505ff">
<path fill="#0f0505" opacity="1.00" d=" M 854.38 463.89 C 855.18 462.75 856.00 461.62 856.83 460.50 C 877.03 471.61 899.22 478.85 921.89 482.82 C 947.28 487.32 972.47 492.88 998.00 496.63 C 1025.50 500.64 1053.14 504.86 1081.01 504.41 C 1094.45 504.08 1108.71 502.18 1119.62 493.62 C 1120.55 494.52 1121.49 495.43 1122.45 496.35 C 1115.57 501.88 1107.15 505.25 1098.48 506.68 C 1076.79 510.06 1054.77 507.60 1033.10 505.35 C 1003.05 501.80 973.18 496.83 943.53 490.77 C 929.55 488.05 915.36 486.25 901.60 482.49 C 885.17 478.27 869.30 471.93 854.38 463.89 Z" />
</g>
<g id="#130808ff">
<path fill="#130808" opacity="1.00" d=" M 163.19 540.96 C 196.31 537.84 229.15 527.00 255.93 506.93 C 257.73 507.28 259.53 507.62 261.33 507.97 C 237.79 526.11 209.55 537.75 180.27 542.52 C 157.75 546.56 134.79 545.86 112.01 545.53 C 90.88 544.63 69.50 540.38 50.76 530.22 C 49.98 529.20 49.26 528.15 48.52 527.11 C 49.23 526.86 50.66 526.36 51.37 526.12 C 70.65 536.95 92.91 541.29 114.84 541.74 C 130.94 542.93 147.12 542.30 163.19 540.96 Z" />
</g>
<g id="#1f1013ff">
<path fill="#1f1013" opacity="1.00" d=" M 1223.86 618.86 C 1229.68 614.44 1236.94 612.71 1244.00 611.45 L 1244.00 615.51 C 1237.52 616.72 1230.80 618.27 1225.66 622.66 C 1215.71 630.87 1211.70 644.44 1212.44 656.98 C 1213.46 672.21 1220.70 686.79 1231.70 697.30 C 1235.38 700.85 1239.78 703.49 1244.00 706.34 L 1244.00 710.93 C 1220.78 699.38 1205.65 672.96 1208.74 647.03 C 1210.31 636.34 1214.91 625.40 1223.86 618.86 Z" />
</g>
<g id="#160405ff">
<path fill="#160405" opacity="1.00" d=" M 1136.59 796.19 C 1137.77 795.30 1138.95 794.42 1140.16 793.55 C 1163.95 807.50 1189.75 818.02 1216.63 824.27 C 1225.64 826.58 1234.91 827.56 1244.00 829.44 L 1244.00 832.63 C 1237.27 832.47 1230.65 831.13 1224.06 829.86 C 1193.29 823.59 1163.69 812.02 1136.59 796.19 Z" />
</g>
</svg>
