<?xml version="1.0" encoding="UTF-8" ?>
<!DOCTYPE svg PUBLIC "-//W3C//DTD SVG 1.1//EN" "http://www.w3.org/Graphics/SVG/1.1/DTD/svg11.dtd">
<svg width="608pt" height="608pt" viewBox="0 0 608 608" version="1.1" xmlns="http://www.w3.org/2000/svg">
<g id="#fefefeff">
</g>
<g id="#161616ff">
<path fill="#161616" opacity="1.00" d=" M 527.12 24.92 C 535.13 20.70 543.87 17.93 552.81 16.54 C 563.47 14.87 574.28 15.77 585.02 15.68 C 592.70 15.65 600.34 16.41 608.00 16.81 L 608.00 19.30 C 600.33 18.94 592.67 18.20 584.99 18.25 C 575.28 18.33 565.53 17.65 555.85 18.69 C 543.79 20.11 532.07 24.30 521.88 30.91 C 508.02 40.13 496.03 51.81 482.67 61.71 C 470.87 70.86 457.49 77.70 443.85 83.64 C 417.42 94.94 391.46 107.48 364.15 116.56 C 350.54 120.76 335.83 121.29 322.00 117.81 C 306.06 113.94 290.35 108.58 273.92 107.13 C 265.29 106.30 256.65 104.99 247.96 105.40 C 232.92 106.15 217.61 106.94 203.32 112.15 C 183.99 118.56 166.49 132.06 157.79 150.76 C 150.34 165.71 149.81 182.72 148.74 199.04 C 148.15 209.82 148.42 220.83 145.10 231.24 C 138.75 251.42 128.11 269.86 120.56 289.56 C 114.73 303.80 111.28 318.82 106.77 333.49 C 102.59 347.73 98.16 362.24 89.61 374.57 C 80.31 388.85 68.61 401.50 60.34 416.46 C 52.11 430.76 47.30 446.64 40.57 461.63 C 35.19 472.93 25.68 481.94 14.59 487.60 C 9.90 490.07 4.82 491.67 0.00 493.85 L 0.00 491.07 C 4.20 489.23 8.58 487.84 12.66 485.73 C 23.56 480.34 33.03 471.68 38.25 460.58 C 45.24 445.06 50.17 428.56 58.91 413.86 C 68.28 397.40 81.61 383.63 91.17 367.29 C 98.04 355.17 101.68 341.62 105.65 328.37 C 109.15 316.73 112.04 304.88 116.35 293.50 C 121.53 279.38 128.13 265.85 134.30 252.15 C 139.14 240.88 144.20 229.40 145.32 217.04 C 146.20 202.30 146.42 187.49 148.52 172.86 C 150.69 157.36 157.45 142.43 168.27 131.05 C 182.80 115.77 203.33 107.50 223.94 104.67 C 231.94 103.79 239.97 103.23 248.01 102.83 C 257.04 102.38 265.98 103.93 274.95 104.66 C 291.67 106.33 307.66 111.78 323.93 115.65 C 336.63 118.68 350.07 118.08 362.57 114.39 C 389.54 105.59 415.12 93.18 441.17 82.05 C 453.34 76.70 465.44 70.95 476.31 63.22 C 483.67 58.04 490.56 52.23 497.54 46.57 C 507.01 38.86 516.19 30.57 527.12 24.92 Z" />
<path fill="#161616" opacity="1.00" d=" M 556.02 45.64 C 562.26 44.01 568.76 44.66 575.09 43.68 C 579.68 42.99 584.33 43.28 588.94 43.57 C 595.02 43.97 601.12 43.50 607.20 43.94 C 599.81 44.43 592.39 44.19 585.01 43.67 C 577.96 43.11 571.01 44.85 563.96 44.79 C 553.80 45.77 543.81 48.73 534.74 53.43 C 527.57 57.01 521.31 62.06 514.79 66.65 C 505.44 73.33 496.53 80.61 487.26 87.39 C 466.83 102.07 443.82 112.84 419.99 120.71 C 397.21 128.55 375.61 139.35 353.17 148.05 C 344.83 151.17 335.93 153.57 326.95 152.51 C 317.83 151.67 309.81 146.97 301.82 142.93 C 291.04 137.38 279.73 132.70 267.88 130.01 C 257.07 127.56 245.93 128.24 234.94 128.21 C 213.27 128.97 191.08 140.35 180.94 160.09 C 172.70 176.10 173.80 194.59 172.00 211.99 C 170.91 224.38 167.06 236.46 161.26 247.44 C 150.55 268.50 138.24 289.05 131.63 311.89 C 127.14 328.55 123.08 345.32 118.92 362.07 C 116.98 369.96 114.55 377.78 110.93 385.07 C 104.38 398.51 94.53 409.90 86.49 422.42 C 77.09 436.64 71.32 452.78 64.03 468.09 C 57.30 481.81 47.07 493.82 34.50 502.51 C 23.29 510.12 11.52 516.86 0.00 523.99 L 0.00 523.58 C 10.19 517.27 20.56 511.23 30.61 504.68 C 42.06 497.43 51.89 487.59 59.13 476.12 C 65.84 465.48 69.75 453.45 75.28 442.22 C 79.99 431.79 85.93 421.95 92.66 412.69 C 101.25 400.76 110.18 388.71 114.90 374.61 C 119.14 361.95 121.64 348.79 125.07 335.90 C 128.41 323.40 130.95 310.63 135.77 298.58 C 142.41 281.63 151.38 265.74 159.74 249.60 C 165.53 238.86 169.95 227.21 171.31 215.02 C 172.58 207.39 172.20 199.63 173.26 191.99 C 173.87 178.29 176.68 164.08 184.98 152.84 C 196.05 137.68 214.61 129.34 233.00 127.88 C 240.03 127.68 247.07 127.76 254.10 127.86 C 272.17 128.73 289.18 135.88 305.00 144.17 C 312.51 148.11 320.39 152.02 329.03 152.37 C 341.36 153.09 352.88 147.85 364.03 143.31 C 376.94 137.93 389.69 132.12 402.65 126.86 C 416.72 121.09 431.38 116.89 445.29 110.72 C 460.52 103.92 475.21 95.80 488.67 85.91 C 501.60 76.07 514.41 66.06 527.87 56.95 C 536.45 51.47 546.03 47.61 556.02 45.64 Z" />
<path fill="#161616" opacity="1.00" d=" M 550.08 67.15 C 558.79 64.39 567.90 62.01 577.10 62.47 C 557.25 62.90 538.27 70.82 522.35 82.38 C 508.21 92.79 494.23 103.44 480.28 114.11 C 466.32 124.32 450.16 131.04 433.79 136.37 C 418.95 140.69 404.01 145.01 390.11 151.91 C 376.47 159.10 363.33 167.17 350.09 175.06 C 341.76 179.97 332.98 184.53 323.33 186.13 C 313.79 188.09 303.83 184.37 296.65 178.08 C 291.55 173.60 286.42 169.15 281.50 164.47 C 274.11 158.20 265.43 153.24 255.94 151.00 C 249.09 149.09 241.91 149.67 234.89 149.66 C 225.13 151.25 215.10 154.78 208.26 162.26 C 199.67 170.49 196.45 182.63 195.36 194.13 C 195.74 182.03 199.82 169.30 209.01 160.99 C 215.15 154.63 223.80 151.62 232.23 149.74 C 236.43 148.90 240.74 149.49 244.99 149.34 C 254.69 149.27 264.21 152.56 272.48 157.50 C 282.98 163.67 290.67 173.41 300.45 180.54 C 305.58 184.14 311.80 186.21 318.07 186.41 C 328.54 185.88 338.26 181.41 347.25 176.33 C 360.01 168.76 372.62 160.92 385.68 153.89 C 409.91 140.15 438.52 137.43 462.98 124.17 C 475.96 118.14 486.63 108.42 498.11 100.07 C 514.59 87.89 530.39 73.92 550.08 67.15 Z" />
<path fill="#161616" opacity="1.00" d=" M 577.99 75.28 C 587.98 74.60 597.98 73.73 608.00 73.57 L 608.00 76.99 L 607.41 76.11 C 597.23 76.36 587.06 77.13 576.91 77.90 C 557.23 79.57 538.99 88.65 523.38 100.35 C 510.16 110.40 497.64 121.34 484.54 131.55 C 472.83 140.58 459.43 147.46 445.18 151.44 C 427.61 156.60 409.19 159.81 393.03 168.85 C 377.94 177.45 364.34 188.35 349.80 197.81 C 338.95 204.84 326.96 210.75 313.94 212.17 C 301.73 213.58 289.01 211.69 278.07 205.95 C 270.50 202.25 264.14 196.65 257.45 191.63 C 252.05 187.67 245.41 183.92 238.47 185.57 C 231.26 187.30 227.06 194.19 224.30 200.54 C 219.94 211.43 215.57 222.37 209.63 232.51 C 199.51 249.74 186.35 264.93 175.95 281.97 C 164.12 300.65 156.50 322.00 154.29 344.02 C 152.89 358.10 152.24 372.25 151.08 386.35 C 150.38 394.18 148.41 401.89 145.05 409.00 C 140.31 419.58 132.41 428.23 125.21 437.16 C 118.59 445.27 111.88 453.35 106.05 462.06 C 99.51 471.59 93.44 481.43 87.05 491.06 C 79.01 503.09 68.52 513.35 56.84 521.84 C 43.65 531.61 29.02 539.64 17.50 551.50 C 11.84 557.47 6.71 564.15 3.72 571.88 C 2.66 574.60 1.43 577.26 0.00 579.82 L 0.00 574.24 C 2.68 566.54 7.02 559.49 12.39 553.38 C 23.57 540.19 38.84 531.64 52.71 521.68 C 65.15 513.03 76.34 502.42 84.82 489.81 C 92.02 479.00 98.79 467.90 106.28 457.28 C 112.29 448.69 119.09 440.70 125.69 432.56 C 133.27 423.49 140.94 414.09 144.90 402.78 C 148.95 392.32 148.87 380.96 149.71 369.94 C 150.91 355.39 151.25 340.67 154.66 326.41 C 158.26 310.21 164.93 294.80 173.72 280.75 C 186.91 259.09 204.73 240.25 214.82 216.74 C 219.15 208.02 221.27 198.14 227.28 190.32 C 231.43 184.50 239.02 181.34 246.04 183.11 C 256.18 185.50 263.32 193.66 271.72 199.23 C 283.13 207.28 297.32 211.13 311.23 209.86 C 327.04 208.85 341.25 200.83 353.98 191.97 C 371.06 180.49 387.20 166.91 406.79 159.83 C 426.33 152.59 447.65 150.41 466.14 140.37 C 478.62 134.03 489.08 124.60 499.92 115.90 C 508.94 108.57 517.79 100.99 527.37 94.39 C 542.36 84.10 559.69 76.54 577.99 75.28 Z" />
<path fill="#161616" opacity="1.00" d=" M 569.24 90.66 C 581.98 87.94 595.00 86.83 608.00 86.45 L 608.00 86.89 C 603.71 87.63 599.33 87.00 595.01 87.36 C 579.91 88.78 564.43 90.60 550.68 97.47 C 532.85 105.55 518.07 118.71 503.72 131.72 C 494.45 139.77 485.76 148.66 475.15 154.98 C 462.39 163.12 447.31 166.04 432.77 169.28 C 418.17 172.27 403.87 177.26 391.11 185.04 C 371.07 197.14 354.01 214.33 331.71 222.51 C 315.63 228.82 298.09 230.35 280.99 228.70 C 267.44 229.05 253.00 226.75 240.39 233.04 C 224.91 240.47 213.99 254.24 202.41 266.44 C 186.77 283.45 174.14 303.94 169.27 326.74 C 166.99 338.33 166.08 350.23 166.86 362.02 C 168.18 369.93 167.48 377.95 167.70 385.92 C 168.06 400.98 163.80 416.45 154.26 428.29 C 141.94 443.22 126.81 455.69 115.54 471.52 C 104.79 485.19 95.80 500.28 83.56 512.74 C 69.41 527.27 51.43 537.09 35.52 549.44 C 22.47 559.36 12.19 573.27 7.89 589.20 C 6.00 595.10 5.49 601.32 3.81 607.27 C 5.72 595.02 8.31 582.52 14.89 571.82 C 21.05 561.08 30.24 552.52 40.22 545.37 C 57.40 533.09 76.01 522.10 89.54 505.54 C 99.91 493.13 108.61 479.43 118.65 466.76 C 129.27 453.12 142.46 441.80 153.53 428.56 C 160.25 420.41 164.54 410.42 166.31 400.04 C 168.14 391.12 167.04 381.98 167.40 372.95 C 167.59 368.60 166.73 364.33 166.40 360.02 C 165.62 340.29 168.48 320.04 177.33 302.23 C 183.51 289.16 192.00 277.30 201.67 266.61 C 209.49 258.44 216.73 249.68 225.48 242.46 C 231.99 236.85 239.47 232.15 247.83 229.93 C 257.34 227.38 267.28 228.68 276.99 228.31 C 285.30 228.61 293.62 229.05 301.94 228.74 C 320.17 227.55 337.87 221.15 353.09 211.12 C 366.23 202.42 378.36 192.24 391.91 184.15 C 404.23 176.80 417.95 172.04 431.96 169.12 C 445.43 166.06 459.35 163.52 471.54 156.68 C 487.84 147.55 500.34 133.34 514.61 121.54 C 530.39 107.65 548.45 95.35 569.24 90.66 Z" />
<path fill="#161616" opacity="1.00" d=" M 594.97 98.47 C 598.82 98.18 602.75 98.66 606.52 97.59 C 606.52 97.76 606.53 98.08 606.53 98.24 C 597.99 98.75 589.40 98.84 580.99 100.67 C 560.04 103.58 540.85 114.26 525.36 128.37 C 516.88 135.51 509.34 143.66 501.41 151.39 C 492.30 160.34 483.29 170.01 471.40 175.28 C 453.59 183.61 433.27 182.84 414.99 189.65 C 405.92 192.63 397.38 197.02 389.36 202.17 C 378.50 209.75 367.49 217.09 356.31 224.18 C 338.23 235.61 317.20 241.74 296.01 243.78 C 280.46 246.30 264.30 245.78 249.34 251.28 C 236.92 255.70 226.22 263.75 216.45 272.41 C 201.69 286.23 189.20 303.41 184.20 323.25 C 180.89 335.89 181.24 349.11 182.53 362.00 C 183.61 367.60 184.10 373.29 184.33 378.98 C 186.72 393.22 185.04 408.13 179.12 421.33 C 173.70 434.20 163.36 444.04 153.02 453.05 C 148.40 457.42 143.84 461.86 138.99 465.98 C 121.01 483.51 108.12 505.57 89.55 522.54 C 75.39 536.44 57.65 545.77 42.15 557.98 C 35.07 564.08 28.45 570.89 23.80 579.06 C 18.51 587.66 15.95 597.52 13.27 607.15 C 16.19 591.84 22.50 576.78 33.54 565.54 C 46.17 552.15 62.97 543.92 77.24 532.54 C 92.26 521.23 104.47 506.72 115.99 491.98 C 122.01 484.09 128.43 476.51 135.14 469.20 C 139.97 464.33 145.37 460.07 150.15 455.14 C 161.28 445.18 173.13 434.96 178.95 420.80 C 184.99 407.48 186.17 392.41 183.86 378.07 C 183.82 372.10 182.97 366.21 181.94 360.35 C 181.16 349.24 180.66 337.94 183.01 326.97 C 187.14 306.00 199.84 287.69 215.08 273.14 C 226.16 263.09 238.62 253.86 253.18 249.65 C 268.41 245.29 284.41 245.43 299.97 242.98 C 319.66 240.71 339.07 234.59 355.89 224.00 C 365.32 218.09 374.53 211.85 383.75 205.62 C 393.76 198.35 404.82 192.44 416.65 188.74 C 427.75 184.73 439.58 183.71 451.06 181.25 C 463.57 178.81 476.04 174.20 485.71 165.66 C 499.31 153.96 510.98 140.19 524.59 128.48 C 539.33 115.15 557.20 104.56 576.96 101.05 C 582.94 100.06 588.89 98.75 594.97 98.47 Z" />
<path fill="#161616" opacity="1.00" d=" M 588.02 110.55 C 594.30 109.57 600.69 108.29 607.06 109.06 C 596.68 109.11 586.41 110.90 576.31 113.16 C 556.11 118.02 538.52 130.47 524.49 145.46 C 516.55 154.89 508.26 164.01 500.03 173.18 C 492.58 181.70 484.75 190.53 474.00 194.88 C 456.42 201.94 436.81 199.05 418.81 204.36 C 407.44 207.18 397.36 213.38 387.39 219.28 C 372.96 227.96 358.84 237.31 343.38 244.10 C 325.73 251.70 306.80 255.58 287.97 258.96 C 280.97 260.31 273.96 261.65 267.06 263.47 C 248.85 268.38 231.65 277.92 218.90 291.94 C 209.47 302.38 201.81 314.97 199.60 329.05 C 197.57 336.92 199.20 344.98 199.36 352.95 C 200.65 362.61 201.06 372.36 202.40 382.02 C 203.33 388.09 202.04 394.15 201.38 400.17 C 201.19 395.08 202.86 390.11 202.37 385.01 C 200.64 369.37 198.76 353.73 198.23 337.99 C 198.61 329.40 200.64 320.87 204.12 313.01 C 214.51 291.10 234.38 274.50 257.04 266.33 C 267.02 262.53 277.57 260.66 288.00 258.62 C 307.11 255.18 326.34 251.24 344.18 243.36 C 359.61 236.42 373.74 227.06 388.19 218.35 C 397.68 212.79 407.25 206.97 418.02 204.22 C 436.14 198.68 455.90 201.71 473.65 194.65 C 485.81 189.74 494.08 179.17 502.58 169.70 C 506.07 166.13 509.10 162.14 512.60 158.56 C 519.15 151.49 524.82 143.58 532.15 137.25 C 539.81 130.72 547.83 124.43 556.94 120.01 C 566.60 114.96 577.28 112.14 588.02 110.55 Z" />
<path fill="#161616" opacity="1.00" d=" M 582.06 123.42 C 590.26 121.50 598.70 120.85 607.09 120.37 C 604.43 121.05 601.68 121.20 598.95 121.28 C 589.26 122.19 579.47 123.58 570.41 127.34 C 558.63 131.93 548.16 139.34 539.03 148.01 C 519.04 168.38 506.33 194.28 492.96 219.14 C 491.26 222.47 489.63 226.25 486.14 228.06 C 482.69 230.12 478.49 229.13 474.89 228.08 C 461.49 224.58 448.05 219.83 433.99 220.62 C 421.99 219.98 410.22 223.49 399.37 228.34 C 379.02 238.00 359.93 250.24 338.99 258.67 C 321.89 264.80 304.37 269.67 286.92 274.66 C 265.78 280.79 244.28 290.66 230.97 308.92 C 222.85 319.41 219.97 332.99 220.16 346.03 C 220.61 358.30 221.23 370.64 220.10 382.89 C 216.65 407.46 209.25 431.90 195.47 452.74 C 188.69 462.35 180.58 471.02 171.50 478.49 C 160.34 488.26 148.44 497.35 138.92 508.81 C 131.61 516.24 124.85 524.18 117.85 531.89 C 100.91 550.18 77.44 560.07 57.74 574.81 C 50.00 580.79 43.28 588.27 38.88 597.05 C 37.11 600.26 35.98 603.77 34.27 607.01 C 38.54 593.60 47.31 581.77 58.73 573.56 C 75.45 561.51 94.27 552.45 110.00 538.99 C 120.77 529.09 129.65 517.38 139.98 507.04 C 145.15 500.51 151.68 495.34 157.73 489.68 C 171.11 478.45 184.97 467.36 194.94 452.82 C 209.06 431.63 216.61 406.66 219.92 381.58 C 220.80 373.06 220.20 364.48 220.30 355.94 C 219.01 342.91 219.82 329.25 225.43 317.24 C 233.33 301.21 248.30 289.95 264.21 282.61 C 274.74 277.79 285.85 274.42 297.03 271.47 C 316.84 265.42 337.24 260.50 355.63 250.70 C 363.21 247.08 370.37 242.69 377.93 239.05 C 391.88 231.47 406.07 223.32 422.02 220.94 C 426.98 219.94 432.05 220.47 437.07 220.34 C 448.33 220.03 459.19 223.49 469.94 226.42 C 474.56 227.55 479.23 229.50 484.08 228.60 C 487.03 227.67 489.26 225.25 490.72 222.60 C 500.32 204.71 509.40 186.47 520.90 169.68 C 528.91 158.02 538.12 146.94 549.62 138.57 C 559.28 131.45 570.28 125.94 582.06 123.42 Z" />
<path fill="#161616" opacity="1.00" d=" M 578.74 136.74 C 588.15 133.37 598.22 133.03 608.00 131.46 L 608.00 133.83 C 600.10 135.63 591.86 135.52 584.05 137.79 C 569.69 141.41 556.84 149.86 547.13 160.95 C 535.35 173.93 527.01 190.40 525.11 207.93 C 523.92 218.31 528.16 228.50 534.57 236.48 C 541.77 245.49 550.33 253.35 557.37 262.51 C 565.26 272.90 569.14 286.05 568.82 299.04 C 568.24 329.98 548.02 359.94 519.14 371.35 C 510.05 374.62 498.89 375.12 490.94 368.85 C 481.59 361.65 477.31 350.06 474.27 339.07 C 468.01 317.09 467.19 293.94 460.52 272.07 C 457.51 262.20 451.93 252.57 442.81 247.23 C 431.43 240.11 416.99 240.73 404.57 244.49 C 383.01 252.06 363.25 263.77 342.14 272.41 C 326.12 279.39 309.35 284.66 293.83 292.76 C 284.95 297.48 276.40 303.07 269.40 310.37 C 261.98 317.95 256.77 327.48 253.50 337.52 C 248.92 351.48 245.10 365.67 240.45 379.60 C 235.54 394.21 230.06 408.62 224.89 423.14 C 216.18 446.97 204.79 470.49 186.92 488.87 C 175.19 500.85 162.08 511.41 150.72 523.76 C 145.96 529.00 141.07 534.13 136.09 539.16 C 127.71 547.47 119.66 556.32 109.52 562.56 C 96.81 570.35 83.15 576.46 70.45 584.26 C 61.12 590.13 53.98 598.73 48.20 608.00 L 45.73 608.00 C 52.40 594.53 64.02 583.98 77.38 577.31 C 92.04 568.88 108.21 562.51 120.69 550.77 C 130.66 541.38 140.15 531.50 149.44 521.44 C 160.40 509.71 172.76 499.43 184.11 488.09 C 201.78 470.43 213.05 447.58 221.71 424.43 C 226.80 410.27 232.09 396.19 236.97 381.96 C 241.93 367.58 245.86 352.88 250.54 338.41 C 253.09 330.31 256.63 322.44 261.69 315.59 C 267.53 307.50 275.31 301.00 283.69 295.69 C 295.35 288.29 308.23 283.14 321.07 278.18 C 337.67 271.81 353.97 264.67 369.94 256.85 C 380.98 251.29 392.29 246.18 403.94 242.03 C 416.99 238.17 432.14 237.55 444.07 245.02 C 454.60 251.18 460.60 262.54 463.76 273.95 C 469.67 295.36 470.79 317.79 476.92 339.16 C 479.88 349.49 483.92 360.49 492.88 367.13 C 500.35 372.70 510.55 371.85 518.85 368.75 C 547.94 356.85 567.91 325.44 566.19 294.04 C 565.60 282.97 561.64 272.10 554.82 263.36 C 548.22 254.98 540.45 247.62 533.65 239.41 C 526.35 230.78 521.43 219.57 522.53 208.10 C 524.34 190.83 532.12 174.48 543.40 161.38 C 552.68 150.20 564.82 141.18 578.74 136.74 Z" />
<path fill="#161616" opacity="1.00" d=" M 600.98 149.73 C 603.08 149.63 605.15 149.19 607.21 148.72 C 604.99 149.85 602.45 149.97 600.02 150.19 C 587.51 151.24 575.23 156.12 565.80 164.48 C 553.05 175.30 544.94 192.25 546.87 209.13 C 547.45 217.47 551.78 224.89 556.43 231.61 C 561.78 238.88 567.86 245.63 572.31 253.52 C 579.63 265.58 581.49 280.15 580.49 294.01 C 579.90 297.99 579.46 302.00 578.99 306.00 C 575.29 324.54 567.22 342.39 554.57 356.56 C 549.36 363.06 542.90 368.38 536.31 373.42 C 528.76 378.74 520.81 383.72 512.01 386.71 C 507.62 388.60 502.75 388.60 498.05 388.63 C 486.35 389.09 477.09 379.57 472.29 369.78 C 457.66 343.11 459.02 311.22 446.34 283.84 C 440.01 269.35 424.03 258.19 407.87 261.79 C 403.22 262.89 398.35 263.01 393.88 264.79 C 371.82 273.07 351.02 284.22 330.14 295.05 C 316.30 302.18 304.04 312.71 296.02 326.15 C 287.51 340.48 278.51 354.53 268.49 367.85 C 256.60 383.32 246.80 400.36 239.24 418.33 C 231.71 435.82 224.18 453.32 216.49 470.74 C 210.52 483.45 203.57 495.76 194.97 506.89 C 183.73 521.62 172.20 536.13 160.37 550.40 C 147.78 565.39 132.59 578.74 114.38 586.38 C 103.08 591.69 90.88 594.85 79.81 600.67 C 76.35 602.50 73.33 605.04 69.95 607.02 C 77.03 600.75 85.93 597.19 94.63 593.83 C 108.03 588.99 121.51 583.78 133.20 575.47 C 151.35 562.67 164.66 544.62 178.42 527.50 C 188.24 514.83 198.75 502.58 206.72 488.60 C 214.36 475.93 219.83 462.13 225.75 448.62 C 235.01 428.11 242.59 406.72 254.54 387.55 C 259.34 379.50 264.88 371.94 270.50 364.46 C 279.69 352.04 287.94 338.97 295.84 325.71 C 303.73 312.57 315.67 302.18 329.21 295.16 C 344.68 286.96 360.26 278.96 376.19 271.69 C 385.56 267.84 394.78 262.91 405.05 262.04 C 414.98 259.01 426.07 261.53 434.18 267.86 C 440.18 272.20 444.43 278.52 447.37 285.23 C 457.43 308.11 458.21 333.71 466.90 357.03 C 471.59 368.81 477.53 381.93 490.06 387.07 C 499.25 389.74 509.33 388.20 517.86 384.02 C 533.13 376.63 546.96 365.96 557.42 352.54 C 572.80 333.33 580.89 308.54 580.39 284.00 C 580.48 279.56 579.43 275.21 578.74 270.85 C 576.20 258.16 568.47 247.42 560.49 237.56 C 553.71 228.99 546.92 219.32 546.43 208.00 C 545.42 196.01 549.21 183.84 556.37 174.23 C 566.44 159.77 583.52 150.93 600.98 149.73 Z" />
<path fill="#161616" opacity="1.00" d=" M 593.10 188.04 C 597.24 185.34 602.46 185.44 607.09 186.59 C 602.47 186.31 597.38 185.47 593.33 188.33 C 587.09 191.53 585.05 199.82 587.87 205.99 C 590.30 212.68 596.82 216.68 599.51 223.22 C 601.29 226.87 601.86 230.98 601.68 235.01 C 601.00 253.50 598.58 271.93 594.53 289.99 C 590.54 309.52 584.44 328.89 574.04 346.02 C 565.52 359.79 554.11 371.58 541.24 381.34 C 532.20 388.46 522.76 395.16 512.41 400.24 C 506.01 403.15 499.28 406.34 492.06 405.68 C 484.63 405.78 477.45 402.19 472.52 396.74 C 462.61 386.20 456.73 372.68 451.84 359.26 C 446.37 344.18 443.16 328.39 437.78 313.29 C 434.20 303.77 428.89 294.20 419.94 288.81 C 413.67 285.04 406.10 284.63 399.02 285.55 C 388.33 287.77 378.46 292.62 368.83 297.60 C 350.84 306.68 334.87 319.78 322.99 336.10 C 312.85 350.35 301.28 363.57 288.49 375.48 C 278.01 386.16 266.58 396.16 258.40 408.83 C 241.74 434.26 233.27 463.76 222.72 491.98 C 216.78 509.21 208.60 525.83 205.76 543.98 C 205.47 548.99 205.51 554.04 205.73 559.07 C 206.66 566.41 210.45 573.20 215.40 578.60 C 224.91 588.46 235.33 597.36 245.12 606.94 C 238.76 602.35 233.81 596.13 227.73 591.22 C 220.17 583.80 211.26 576.97 207.39 566.74 C 204.29 559.91 205.55 552.29 205.35 545.05 C 206.97 532.22 211.74 520.08 216.32 508.07 C 224.33 487.54 231.11 466.56 239.20 446.05 C 247.08 426.44 256.73 407.02 271.65 391.75 C 278.82 384.65 285.74 377.29 293.23 370.52 C 302.00 361.53 310.52 352.26 318.03 342.17 C 324.72 332.97 331.68 323.78 340.43 316.42 C 352.24 305.58 366.53 297.91 381.01 291.27 C 391.49 286.61 403.52 282.35 414.93 286.24 C 426.31 289.78 433.18 300.66 437.35 311.16 C 444.09 329.37 447.53 348.65 455.01 366.61 C 459.19 376.86 464.25 386.97 471.70 395.27 C 476.65 401.26 484.11 405.41 491.99 405.37 C 499.55 406.05 506.55 402.52 513.21 399.45 C 527.75 391.95 540.73 381.78 552.94 370.98 C 564.53 360.14 574.18 347.13 580.72 332.64 C 586.72 319.75 590.79 306.05 593.73 292.17 C 598.16 273.06 600.58 253.54 601.42 233.97 C 601.61 227.47 598.88 221.16 594.55 216.41 C 590.41 211.84 586.23 206.41 586.33 199.93 C 586.14 195.10 588.80 190.29 593.10 188.04 Z" />
<path fill="#161616" opacity="1.00" d=" M 194.57 194.93 C 195.04 198.98 193.69 202.91 193.55 206.93 C 192.78 218.25 189.85 229.47 184.28 239.40 C 175.91 255.15 166.06 270.05 157.64 285.77 C 147.07 305.69 141.30 327.76 138.37 350.03 C 139.89 333.68 143.94 317.51 149.77 302.15 C 157.65 281.74 170.48 263.87 180.87 244.75 C 185.21 237.30 189.13 229.49 191.10 221.05 C 192.98 212.45 193.56 203.65 194.57 194.93 Z" />
<path fill="#161616" opacity="1.00" d=" M 492.59 244.67 C 496.56 243.32 500.63 245.70 504.36 246.93 C 519.24 253.41 533.61 262.10 544.14 274.65 C 553.01 285.44 556.80 300.35 553.58 314.01 C 551.05 328.07 542.60 340.70 531.09 349.02 C 523.86 353.85 514.71 357.63 506.02 354.67 C 498.03 352.06 493.03 344.59 490.04 337.14 C 482.78 319.42 481.89 299.89 482.44 280.98 C 482.53 272.02 484.08 263.12 486.73 254.57 C 487.96 250.95 489.29 246.93 492.59 244.67 M 493.06 244.82 C 489.61 247.12 488.21 251.26 486.96 255.02 C 483.04 266.91 482.52 279.56 482.59 291.98 C 483.12 309.45 484.73 327.71 493.50 343.24 C 497.48 350.56 505.35 356.05 513.92 355.41 C 523.32 354.33 531.88 349.10 538.24 342.25 C 546.51 334.15 551.80 323.30 553.66 311.91 C 556.18 299.04 552.22 285.30 544.04 275.17 C 533.44 262.45 518.97 253.62 503.91 247.12 C 500.46 245.95 496.77 243.89 493.06 244.82 Z" />
<path fill="#161616" opacity="1.00" d=" M 510.20 285.47 C 512.21 284.07 514.73 284.36 517.05 284.39 C 513.15 284.26 509.29 285.58 506.97 288.84 C 500.91 296.80 500.85 307.64 502.98 317.01 C 504.52 323.13 507.60 329.87 513.98 332.14 C 519.52 334.36 525.38 331.15 529.24 327.22 C 539.12 317.52 539.87 299.25 529.20 289.85 C 526.14 286.75 521.99 285.23 517.88 284.14 C 526.38 285.06 533.75 291.79 536.05 299.95 C 540.00 312.03 534.49 327.31 522.36 332.29 C 516.32 335.12 509.14 331.30 506.10 325.83 C 501.61 318.00 500.66 308.50 501.89 299.67 C 503.18 294.33 505.22 288.45 510.20 285.47 Z" />
<path fill="#161616" opacity="1.00" d=" M 606.04 295.76 C 606.53 295.98 607.51 296.41 608.00 296.62 L 608.00 298.66 C 600.27 317.47 593.49 336.95 581.79 353.78 C 568.39 373.79 549.11 388.74 530.14 403.12 C 519.03 411.28 508.01 420.35 494.58 424.36 C 486.42 426.83 477.15 425.10 470.65 419.52 C 459.58 411.00 453.52 398.12 446.81 386.26 C 440.11 374.02 433.42 361.78 426.74 349.53 C 422.66 342.19 418.03 334.93 411.50 329.52 C 406.69 325.58 400.26 323.77 394.10 324.48 C 386.73 325.36 379.71 328.09 373.14 331.46 C 356.94 339.69 343.63 352.26 330.14 364.19 C 315.90 376.99 300.81 388.80 285.97 400.90 C 264.17 417.89 252.29 444.18 244.67 470.07 C 240.67 484.19 237.31 498.50 234.42 512.89 C 232.13 526.34 231.12 540.54 235.23 553.75 C 241.57 571.91 255.96 585.42 268.82 599.10 C 271.30 602.04 274.96 604.19 276.23 608.00 L 274.11 608.00 C 269.97 604.12 266.11 599.95 262.18 595.87 C 250.47 583.38 238.03 570.49 232.59 553.86 C 228.43 539.58 229.68 524.37 232.41 509.95 C 235.75 494.26 239.30 478.58 244.11 463.27 C 251.24 441.12 261.76 419.16 279.21 403.27 C 296.64 388.68 314.75 374.88 331.56 359.54 C 347.63 345.14 364.44 330.20 385.47 323.69 C 394.01 320.91 404.04 320.91 411.54 326.40 C 422.22 334.19 427.89 346.58 434.16 357.82 C 441.23 370.76 448.25 383.72 455.48 396.57 C 459.49 403.84 464.32 410.82 470.67 416.26 C 476.10 421.32 483.75 424.05 491.15 422.55 C 500.64 420.61 508.96 415.21 516.82 409.78 C 533.43 397.58 550.21 385.38 564.67 370.61 C 576.62 358.70 585.80 344.24 592.75 328.92 C 597.44 317.98 602.27 307.05 606.04 295.76 Z" />
<path fill="#161616" opacity="1.00" d=" M 584.51 365.25 C 593.24 354.32 600.19 342.10 606.88 329.87 C 604.92 334.74 602.25 339.27 599.47 343.71 C 592.99 354.75 585.88 365.60 576.53 374.46 C 566.58 384.95 555.14 393.82 544.27 403.29 C 534.77 411.12 525.47 419.17 515.99 427.01 C 506.29 435.12 495.98 443.92 483.12 446.10 C 474.52 447.16 467.07 441.35 461.69 435.31 C 447.54 415.90 437.48 393.61 421.45 375.56 C 414.59 368.36 406.15 362.04 396.17 360.19 C 390.80 359.19 385.33 359.98 379.93 359.45 C 387.24 359.35 394.85 358.64 401.81 361.39 C 413.46 365.57 422.18 374.99 429.43 384.66 C 440.07 399.56 448.81 415.69 458.99 430.90 C 462.80 436.85 468.31 441.94 474.83 444.74 C 485.39 448.37 495.62 441.72 504.07 436.07 C 516.82 426.26 528.84 415.53 541.25 405.29 C 556.19 392.54 571.73 380.28 584.51 365.25 Z" />
<path fill="#161616" opacity="1.00" d=" M 130.60 388.23 C 134.32 376.02 135.92 363.31 137.62 350.71 C 137.07 360.94 135.02 371.05 132.90 381.06 C 130.41 392.47 125.39 403.19 118.80 412.80 C 110.02 425.68 100.19 437.89 92.41 451.44 C 85.00 463.76 79.33 477.12 70.82 488.76 C 64.10 497.86 55.99 505.94 46.73 512.45 C 38.62 518.09 30.44 523.63 22.39 529.35 C 15.82 533.72 9.42 538.48 4.15 544.42 C 2.83 545.84 1.70 547.51 0.00 548.55 L 0.00 547.17 C 3.18 545.39 5.33 542.38 7.98 539.97 C 13.77 534.34 20.75 530.19 27.25 525.48 C 38.11 517.66 49.81 510.85 59.42 501.43 C 65.40 495.28 70.89 488.63 75.37 481.30 C 81.59 471.04 86.68 460.15 92.87 449.88 C 100.29 437.23 109.43 425.72 117.74 413.67 C 123.14 405.81 127.80 397.37 130.60 388.23 Z" />
<path fill="#161616" opacity="1.00" d=" M 603.11 360.02 C 604.57 358.34 605.46 355.71 608.00 355.44 L 608.00 357.46 C 600.76 368.18 591.71 377.61 581.68 385.77 C 567.11 399.23 550.69 410.57 536.75 424.72 C 523.60 438.24 511.13 452.50 496.78 464.79 C 489.21 471.19 480.23 477.00 470.00 477.22 C 464.44 477.35 459.43 473.96 456.59 469.35 C 447.86 455.78 443.48 440.04 436.10 425.77 C 429.21 411.90 420.34 398.23 407.15 389.62 C 397.73 383.50 385.91 381.84 374.99 384.05 C 365.86 385.78 357.20 389.51 349.34 394.41 C 339.02 400.72 328.73 407.07 318.56 413.62 C 309.01 419.88 299.08 425.89 291.37 434.46 C 277.92 448.56 271.28 467.83 269.56 486.97 C 268.13 498.00 269.54 509.15 271.37 520.05 C 273.70 532.52 280.76 545.15 292.87 550.32 C 302.63 554.41 313.37 551.63 323.05 548.79 C 352.12 540.14 381.64 532.24 411.96 529.68 C 417.72 529.38 423.79 528.54 429.28 530.86 C 436.34 533.66 441.38 540.02 444.02 546.98 C 451.70 566.31 451.87 587.50 451.60 608.00 L 449.21 608.00 C 449.24 587.22 449.26 565.62 440.94 546.18 C 437.48 537.90 429.26 531.19 419.95 531.78 C 393.86 532.92 368.24 538.74 343.14 545.63 C 332.58 548.48 322.20 552.07 311.47 554.27 C 301.71 556.14 290.94 554.23 283.44 547.40 C 272.59 538.24 268.54 523.74 267.38 510.10 C 265.57 498.06 266.57 485.80 268.98 473.93 C 271.87 459.09 278.47 444.87 288.66 433.63 C 295.58 425.75 304.31 419.78 313.10 414.18 C 324.84 406.48 336.76 399.07 348.77 391.80 C 357.38 386.52 366.95 382.69 376.96 381.15 C 388.56 379.22 400.84 381.91 410.44 388.75 C 423.12 397.85 431.80 411.32 438.62 425.12 C 445.73 438.99 450.03 454.22 458.38 467.45 C 460.75 471.58 465.04 474.83 469.98 474.62 C 480.04 474.44 488.72 468.37 496.08 462.05 C 509.65 450.34 521.47 436.81 533.94 423.98 C 543.01 414.61 553.17 406.42 563.27 398.22 C 571.21 391.88 578.62 384.92 586.38 378.37 C 592.65 372.94 598.00 366.54 603.11 360.02 Z" />
<path fill="#161616" opacity="1.00" d=" M 340.20 378.38 C 352.02 370.41 364.52 361.89 379.02 360.27 C 360.08 363.40 344.96 375.99 329.31 386.11 C 313.58 396.95 297.41 407.38 283.41 420.46 C 263.97 439.88 255.40 467.44 252.38 494.14 C 252.42 485.23 254.89 476.53 257.04 467.94 C 261.91 449.33 270.96 431.40 285.20 418.22 C 302.24 403.25 321.49 391.10 340.20 378.38 Z" />
<path fill="#161616" opacity="1.00" d=" M 606.98 381.31 C 603.79 385.60 598.91 388.15 594.80 391.44 C 579.51 402.87 563.29 413.17 549.49 426.44 C 535.08 440.62 523.47 457.28 511.04 473.16 C 501.97 485.69 491.56 497.32 483.79 510.76 C 476.36 523.64 473.89 538.55 471.50 553.03 C 468.67 571.07 465.12 588.99 462.34 607.04 C 463.06 597.12 465.52 587.42 466.95 577.60 C 470.65 559.49 472.03 540.87 477.76 523.22 C 483.26 506.86 495.04 493.86 505.17 480.26 C 517.47 464.25 529.35 447.87 542.76 432.76 C 557.00 417.01 575.06 405.58 591.98 393.00 C 597.10 389.26 602.38 385.70 606.98 381.31 Z" />
<path fill="#161616" opacity="1.00" d=" M 200.66 400.80 C 200.60 403.01 200.47 405.22 200.11 407.41 C 196.49 425.44 187.30 442.30 173.98 454.99 C 164.73 464.84 153.18 472.12 143.82 481.86 C 134.79 490.90 126.58 500.71 118.09 510.25 C 109.31 520.67 100.11 530.91 89.10 539.04 C 77.12 547.80 64.34 555.41 52.27 564.04 C 43.32 570.51 35.80 578.98 30.57 588.71 C 27.30 594.75 25.45 601.40 23.69 608.00 L 23.26 608.00 C 24.02 604.91 24.97 601.87 25.96 598.85 C 30.18 585.43 39.03 573.67 50.17 565.17 C 65.29 553.78 82.26 544.93 96.57 532.46 C 113.27 517.16 126.53 498.61 142.51 482.60 C 151.91 472.56 163.72 465.18 173.19 455.21 C 188.23 440.96 198.48 421.47 200.66 400.80 Z" />
<path fill="#161616" opacity="1.00" d=" M 366.20 404.75 C 371.59 402.64 377.43 401.93 383.18 402.46 C 377.68 402.53 372.10 402.82 366.92 404.86 C 348.88 411.40 332.72 422.03 317.13 433.02 C 307.46 440.34 298.25 449.01 293.02 460.15 C 286.68 473.79 285.45 490.20 291.25 504.25 C 294.41 511.97 300.54 519.09 308.94 521.07 C 315.83 522.40 323.00 522.96 329.97 521.93 C 340.35 519.78 350.93 518.55 361.15 515.62 C 379.64 511.07 399.08 506.38 414.10 493.99 C 422.54 487.13 427.95 476.82 428.78 465.98 C 429.65 450.20 425.30 433.98 416.09 421.07 C 409.02 410.35 397.02 402.37 383.89 402.41 C 394.36 401.70 404.33 407.22 411.43 414.57 C 424.16 428.59 430.33 448.07 429.13 466.86 C 427.96 475.27 424.81 483.63 418.93 489.89 C 409.21 500.28 395.76 506.16 382.38 510.24 C 364.31 515.85 345.75 519.75 327.06 522.63 C 318.10 522.76 308.11 523.09 300.53 517.47 C 291.19 510.05 287.38 497.57 287.28 486.02 C 286.77 470.30 293.09 454.44 304.46 443.55 C 309.36 438.38 314.94 433.90 320.86 429.96 C 335.06 420.07 349.89 410.76 366.20 404.75 Z" />
<path fill="#161616" opacity="1.00" d=" M 567.99 427.08 C 579.87 417.69 593.84 411.66 607.53 405.48 C 607.62 406.08 607.80 407.28 607.89 407.88 C 604.77 409.96 601.18 411.14 597.80 412.68 C 586.83 417.53 576.32 423.54 566.99 431.10 C 555.82 440.29 546.50 451.54 538.68 463.66 C 529.34 478.03 519.69 492.21 510.91 506.94 C 499.88 525.36 493.32 545.94 486.12 566.04 C 481.60 579.94 476.32 593.65 473.39 608.00 L 470.93 608.00 C 472.91 596.48 477.04 585.52 480.63 574.44 C 486.48 557.01 492.50 539.61 499.79 522.73 C 509.09 502.62 522.19 484.64 534.08 466.04 C 543.27 451.42 554.23 437.66 567.99 427.08 Z" />
<path fill="#161616" opacity="1.00" d=" M 373.52 426.73 C 380.79 425.52 388.96 426.18 394.81 431.11 C 401.20 436.01 404.79 444.02 404.70 452.02 C 405.37 462.14 399.55 471.75 391.54 477.54 C 382.78 484.44 371.87 487.94 360.99 489.70 C 350.77 491.84 339.70 492.15 329.98 487.89 C 325.13 485.80 321.14 481.37 320.46 476.02 C 319.43 468.99 322.24 461.91 326.80 456.63 C 333.07 448.63 341.16 442.23 349.72 436.83 C 356.96 432.10 364.95 428.26 373.52 426.73 M 374.04 426.98 C 364.92 428.51 356.48 432.75 348.84 437.83 C 340.08 443.50 331.85 450.26 325.66 458.75 C 321.94 463.62 319.90 469.94 320.78 476.07 C 321.66 481.60 326.00 486.06 331.12 488.01 C 341.46 492.14 353.01 491.18 363.66 488.85 C 376.92 486.48 390.45 480.70 398.80 469.73 C 407.26 458.88 406.24 441.47 395.66 432.37 C 390.03 426.86 381.53 425.67 374.04 426.98 Z" />
<path fill="#161616" opacity="1.00" d=" M 585.20 446.57 C 592.12 443.92 599.96 443.66 607.15 445.26 C 599.56 444.39 591.52 444.06 584.38 447.26 C 573.34 451.65 564.59 460.14 557.36 469.34 C 550.44 477.60 544.69 486.73 538.18 495.30 C 527.43 510.03 518.10 525.75 510.03 542.10 C 502.33 558.28 494.39 574.36 487.26 590.81 C 484.95 596.11 483.79 601.86 481.32 607.09 C 485.50 592.02 492.61 578.07 499.12 563.93 C 506.89 547.96 514.17 531.70 523.55 516.59 C 531.52 503.19 541.12 490.88 550.05 478.13 C 559.41 465.43 569.88 452.19 585.20 446.57 Z" />
<path fill="#161616" opacity="1.00" d=" M 574.04 495.15 C 580.40 493.23 587.14 491.38 593.79 492.83 C 598.18 493.74 602.65 494.02 607.09 494.58 C 600.61 494.95 594.38 492.73 587.96 492.58 C 576.95 493.40 566.28 497.77 557.83 504.87 C 540.69 518.43 528.50 536.91 517.28 555.38 C 507.97 569.66 500.67 585.09 493.16 600.36 C 491.98 602.65 490.74 604.93 489.19 607.00 C 496.78 592.86 503.20 578.10 511.35 564.26 C 521.40 547.99 531.10 531.28 544.09 517.12 C 552.66 508.15 562.13 499.35 574.04 495.15 Z" />
<path fill="#161616" opacity="1.00" d=" M 250.31 521.01 C 250.30 512.26 250.13 503.49 251.69 494.85 C 251.80 500.25 250.17 505.53 250.65 510.95 C 250.31 523.29 250.60 536.02 255.31 547.62 C 261.29 563.00 273.27 575.89 288.12 583.06 C 294.39 585.52 301.34 587.43 308.02 585.46 C 321.86 581.78 334.34 574.29 348.04 570.17 C 356.07 567.30 364.55 566.10 373.00 565.35 C 389.08 564.97 406.64 567.81 418.89 579.08 C 427.05 586.42 431.18 596.86 434.66 607.00 C 432.32 602.89 431.40 598.18 429.13 594.04 C 423.91 582.33 413.52 573.07 401.24 569.36 C 389.24 565.65 376.34 564.47 363.95 566.76 C 347.60 568.80 332.89 576.69 317.74 582.61 C 312.73 584.73 307.44 586.34 301.98 586.64 C 289.63 586.27 278.87 579.06 270.13 570.89 C 261.44 562.14 255.03 551.03 252.23 538.99 C 251.30 533.03 249.98 527.07 250.31 521.01 Z" />
<path fill="#161616" opacity="1.00" d=" M 586.09 515.58 C 593.37 515.20 600.75 513.77 608.00 515.24 L 608.00 517.53 C 604.32 517.20 600.63 517.00 596.95 517.29 C 588.88 517.90 580.58 518.04 572.96 521.04 C 558.92 526.34 547.43 536.65 537.89 547.98 C 525.01 563.49 513.82 580.38 504.20 598.09 C 502.36 601.39 500.66 604.77 498.68 608.00 L 496.26 608.00 C 503.12 593.78 511.28 580.17 520.20 567.15 C 529.29 554.25 538.81 541.38 550.99 531.20 C 560.96 522.97 572.98 516.50 586.09 515.58 Z" />
<path fill="#161616" opacity="1.00" d=" M 582.01 533.31 C 590.28 531.73 598.67 530.29 607.12 530.93 C 601.08 531.56 594.95 530.96 588.99 532.41 C 575.56 533.96 562.94 539.93 552.56 548.50 C 536.95 562.23 523.54 578.49 513.46 596.70 C 511.37 600.17 509.58 603.86 507.08 607.08 C 516.89 588.99 528.08 571.37 542.99 557.01 C 553.48 545.76 566.81 536.63 582.01 533.31 Z" />
<path fill="#161616" opacity="1.00" d=" M 556.09 559.13 C 570.54 548.24 588.92 542.11 607.06 543.54 C 585.42 542.62 563.55 550.98 548.29 566.40 C 537.06 577.01 526.93 588.90 519.15 602.30 C 518.11 604.12 516.94 605.91 515.25 607.21 C 517.38 604.55 519.14 601.63 520.85 598.69 C 526.94 589.11 533.96 580.08 542.00 572.05 C 546.54 567.59 550.87 562.82 556.09 559.13 Z" />
<path fill="#161616" opacity="1.00" d=" M 593.05 555.25 C 597.46 554.44 601.98 554.56 606.39 553.69 C 606.47 553.84 606.62 554.13 606.69 554.28 C 600.43 554.65 594.15 555.11 588.03 556.56 C 574.05 559.72 561.27 567.12 550.70 576.69 C 540.42 585.25 533.28 596.73 525.16 607.20 C 534.62 592.76 545.40 578.72 559.83 568.93 C 569.71 561.99 581.08 557.08 593.05 555.25 Z" />
<path fill="#161616" opacity="1.00" d=" M 549.60 589.60 C 564.71 574.41 585.46 564.34 607.12 564.39 C 603.78 565.09 600.38 565.15 597.00 565.46 C 578.12 568.03 560.90 578.18 547.93 591.90 C 542.87 596.53 539.41 602.67 534.20 607.12 C 539.35 601.29 543.94 594.96 549.60 589.60 Z" />
<path fill="#161616" opacity="1.00" d=" M 568.97 586.13 C 580.59 579.52 593.62 574.29 607.19 574.44 C 603.83 575.08 600.39 575.01 597.03 575.55 C 581.99 578.77 567.48 585.59 556.42 596.43 C 553.08 599.79 549.76 603.17 546.38 606.49 C 546.13 606.55 545.62 606.67 545.36 606.73 C 553.00 599.60 559.87 591.50 568.97 586.13 Z" />
<path fill="#161616" opacity="1.00" d=" M 585.29 589.33 C 592.30 586.51 599.83 585.59 607.21 584.26 C 603.61 585.60 599.75 585.77 596.03 586.56 C 587.91 588.25 580.00 591.29 573.16 596.05 C 567.94 599.35 563.55 603.84 558.22 606.97 C 566.69 600.33 574.99 593.00 585.29 589.33 Z" />
</g>
<g id="#b4b4b4ff">
<path fill="#b4b4b4" opacity="1.00" d=" M 578.47 61.25 C 588.05 60.71 597.65 60.78 607.24 60.30 C 606.58 62.05 604.51 61.58 603.06 61.82 C 595.32 62.13 587.58 61.90 579.85 62.33 C 579.50 62.06 578.81 61.52 578.47 61.25 Z" />
<path fill="#b4b4b4" opacity="1.00" d=" M 581.18 603.14 C 589.30 598.90 598.10 595.23 607.40 595.06 C 605.01 597.10 601.48 596.54 598.63 597.52 C 590.28 599.14 583.27 604.19 575.47 607.21 C 576.69 605.06 579.14 604.28 581.18 603.14 Z" />
</g>
</svg>
