<?xml version="1.0" encoding="UTF-8" ?>
<!DOCTYPE svg PUBLIC "-//W3C//DTD SVG 1.1//EN" "http://www.w3.org/Graphics/SVG/1.1/DTD/svg11.dtd">
<svg width="1347pt" height="960pt" viewBox="0 0 1347 960" version="1.1" xmlns="http://www.w3.org/2000/svg">
<g id="#ffffffff">
</g>
<g id="#d3d3d3ff">
<path fill="#d3d3d3" opacity="1.00" d=" M 814.08 66.21 C 836.48 62.01 859.51 61.57 882.09 64.66 C 923.42 69.74 962.19 85.70 1000.92 100.10 C 1015.57 105.75 1030.51 110.74 1045.83 114.26 C 1058.15 117.44 1071.11 117.22 1083.65 115.61 C 1112.79 111.35 1140.68 101.58 1168.63 92.70 C 1203.66 81.31 1239.20 70.16 1276.08 67.01 C 1300.00 65.14 1324.73 67.12 1347.00 76.58 L 1347.00 87.18 C 1330.45 79.68 1312.18 76.11 1294.03 76.22 C 1271.78 75.89 1249.71 79.80 1228.21 85.21 C 1188.93 94.93 1151.20 109.95 1112.01 119.98 C 1092.22 124.57 1071.69 128.64 1051.36 125.37 C 1035.00 122.41 1019.25 116.97 1003.59 111.49 C 971.68 99.88 940.24 86.51 906.99 79.06 C 869.00 69.94 828.29 69.62 791.06 82.28 C 755.45 94.47 719.28 104.86 683.10 115.17 C 646.14 125.97 608.69 136.15 573.86 152.89 C 559.29 160.36 544.28 169.29 535.58 183.64 C 529.77 192.90 529.14 204.54 532.17 214.87 C 536.23 228.87 544.72 241.04 553.66 252.36 C 559.61 259.70 566.02 266.66 572.60 273.43 C 578.38 279.34 584.86 284.51 590.60 290.45 C 594.93 294.98 597.18 300.99 599.02 306.86 C 605.69 328.67 606.38 352.55 599.51 374.40 C 594.85 389.03 586.06 402.42 573.90 411.89 C 558.97 423.56 540.23 429.41 521.58 431.45 C 504.77 433.46 487.75 432.80 470.99 430.68 C 450.12 428.11 429.00 427.76 408.04 429.20 C 361.67 431.89 315.81 439.65 269.97 446.71 C 219.90 454.54 169.71 462.49 119.01 464.63 C 86.10 465.43 52.42 464.63 20.87 454.20 C 13.74 451.69 6.56 449.14 0.00 445.34 L 0.00 434.67 C 8.63 439.19 17.55 443.21 26.87 446.12 C 49.87 453.14 74.06 454.80 97.98 455.28 C 116.35 455.21 134.71 454.24 153.01 452.60 C 205.96 447.89 258.33 438.53 310.87 430.69 C 353.00 424.55 395.36 418.57 438.01 418.59 C 451.05 418.54 464.05 419.94 476.97 421.61 C 488.25 422.93 499.64 422.84 510.98 422.64 C 529.74 421.71 548.87 417.32 564.60 406.65 C 579.59 396.33 589.49 379.57 592.82 361.81 C 595.93 344.96 594.79 327.42 590.14 310.95 C 588.54 305.70 586.83 300.14 582.67 296.31 C 575.67 289.59 568.08 283.49 561.70 276.15 C 549.41 263.27 537.60 249.57 529.29 233.71 C 522.77 221.42 518.86 207.15 521.40 193.23 C 524.64 178.31 535.03 165.93 547.27 157.28 C 559.59 148.50 573.28 141.79 587.28 136.17 C 605.59 128.41 624.59 122.43 643.58 116.58 C 685.42 104.07 727.63 92.76 769.18 79.28 C 783.94 74.27 798.70 69.04 814.08 66.21 Z" />
<path fill="#d3d3d3" opacity="1.00" d=" M 1237.07 110.24 C 1257.02 105.52 1277.44 101.70 1298.03 102.45 C 1315.52 102.70 1333.77 107.31 1347.00 119.31 L 1347.00 126.24 C 1339.80 119.05 1330.88 113.42 1321.01 110.76 C 1305.67 106.29 1289.39 106.75 1273.65 108.46 C 1231.28 113.96 1190.89 128.58 1150.36 141.43 C 1135.13 146.23 1119.97 151.27 1104.58 155.50 C 1086.06 160.05 1066.74 158.95 1047.96 156.89 C 987.12 148.91 928.94 127.35 867.95 120.29 C 844.76 117.74 820.63 117.42 798.37 125.30 C 763.83 138.34 729.37 151.61 694.37 163.35 C 675.45 169.75 656.50 176.09 637.16 181.10 C 630.18 182.91 622.86 184.50 617.03 189.00 C 609.18 195.05 600.93 201.32 596.40 210.40 C 591.80 218.32 592.90 228.59 597.86 236.08 C 606.29 249.28 620.01 257.49 632.09 266.92 C 645.30 278.74 656.89 293.53 660.85 311.15 C 663.30 322.68 665.88 334.20 669.70 345.37 C 673.75 357.26 673.36 370.28 670.24 382.34 C 665.88 397.80 657.49 411.90 646.87 423.88 C 621.04 451.86 582.79 466.76 545.00 466.67 C 529.66 466.52 514.32 466.38 498.99 466.61 C 474.66 467.51 450.35 468.85 426.02 469.85 C 411.03 470.98 396.00 470.39 380.99 470.75 C 313.83 472.10 246.18 474.79 180.37 489.37 C 156.69 494.70 133.38 501.83 109.33 505.42 C 83.41 509.20 57.04 509.42 30.99 506.99 C 20.56 505.92 10.07 504.63 0.00 501.62 L 0.00 496.89 C 8.96 498.63 17.86 500.81 26.97 501.65 C 61.17 505.19 96.05 504.19 129.65 496.56 C 149.55 492.05 169.22 486.55 189.20 482.39 C 261.14 467.86 334.84 466.39 407.96 465.62 C 447.68 464.57 487.32 461.04 527.07 461.54 C 541.46 461.78 556.04 462.43 570.20 459.35 C 606.25 453.27 640.59 431.73 658.17 399.15 C 664.94 386.10 669.33 371.18 667.31 356.38 C 666.12 348.69 662.92 341.53 661.00 334.02 C 657.12 320.25 656.17 305.20 647.95 293.03 C 640.79 282.47 632.37 272.47 621.72 265.28 C 610.05 256.88 597.84 247.87 591.46 234.56 C 587.01 225.86 587.60 214.97 592.65 206.64 C 598.61 196.83 607.54 189.18 617.13 183.04 C 624.30 178.42 632.92 177.35 640.95 175.00 C 687.18 161.85 732.18 144.87 777.17 128.09 C 787.43 124.31 797.43 119.66 808.15 117.29 C 828.78 112.62 850.15 113.28 871.03 115.73 C 927.25 122.41 981.05 141.32 1036.83 150.38 C 1053.66 153.10 1070.75 154.66 1087.79 153.40 C 1096.07 152.58 1104.19 150.61 1112.14 148.16 C 1153.85 135.76 1194.74 120.52 1237.07 110.24 Z" />
<path fill="#d3d3d3" opacity="1.00" d=" M 1228.17 148.16 C 1244.89 141.93 1261.90 134.96 1280.04 134.95 C 1292.17 134.76 1304.31 138.78 1314.05 145.99 C 1327.75 155.79 1337.79 169.63 1347.00 183.52 L 1347.00 192.70 C 1341.80 185.00 1336.89 177.08 1331.19 169.74 C 1324.97 162.68 1319.03 155.12 1311.05 149.95 C 1304.08 145.06 1296.08 141.58 1287.62 140.42 C 1277.20 138.65 1266.67 140.86 1256.61 143.50 C 1238.93 148.70 1222.06 156.18 1204.94 162.93 C 1185.41 170.67 1165.63 177.87 1145.34 183.36 C 1117.82 190.48 1089.46 194.69 1061.01 194.58 C 1025.68 194.96 990.69 188.74 956.46 180.53 C 923.22 172.89 890.29 162.29 855.98 160.79 C 835.87 159.81 815.51 163.63 797.31 172.31 C 779.84 180.11 762.29 188.11 743.57 192.48 C 724.29 198.30 703.97 200.97 685.62 209.61 C 675.93 214.20 666.38 221.03 662.35 231.37 C 658.56 241.34 662.36 252.89 669.99 259.97 C 682.44 271.19 695.29 282.34 704.89 296.21 C 712.06 306.42 715.56 318.65 717.56 330.82 C 719.11 340.70 720.85 350.56 722.56 360.43 C 724.09 369.01 726.57 377.39 728.09 385.98 C 729.94 397.79 724.77 409.17 719.34 419.33 C 709.74 436.11 697.13 450.94 683.84 464.90 C 678.99 469.90 672.98 473.52 667.09 477.14 C 653.21 485.39 639.26 493.99 623.62 498.50 C 602.65 504.62 580.53 503.46 558.96 502.69 C 540.97 502.42 523.02 501.40 505.03 501.36 C 476.71 500.44 448.37 500.55 420.04 500.74 C 405.33 501.38 390.59 501.40 375.95 503.03 C 369.99 503.64 364.06 504.80 358.04 504.66 C 344.35 504.39 330.66 503.21 316.97 503.98 C 274.67 504.87 232.63 510.57 191.03 517.95 C 145.70 525.81 100.85 536.18 55.63 544.65 C 37.41 548.03 18.24 552.31 0.00 546.71 L 0.00 541.88 C 15.71 546.40 32.21 544.08 47.94 540.94 C 83.09 534.66 117.93 526.80 152.98 520.01 C 208.07 509.23 263.76 499.96 320.01 499.01 C 334.65 498.22 349.29 500.14 363.93 499.46 C 379.55 497.68 395.23 496.28 410.96 496.25 C 424.30 495.53 437.67 495.74 451.02 495.71 C 461.02 495.77 471.02 495.54 481.02 496.06 C 501.34 496.54 521.69 496.32 541.99 497.46 C 562.98 497.44 584.06 499.83 604.99 497.11 C 624.60 495.27 642.44 486.01 659.11 476.11 C 665.25 472.32 671.75 468.95 677.13 464.08 C 691.78 450.19 704.62 434.34 714.92 416.98 C 719.85 407.52 725.34 397.00 723.04 385.99 C 719.52 371.09 716.49 356.07 714.35 340.90 C 712.27 328.64 710.56 315.90 704.19 304.98 C 697.77 292.89 687.68 283.43 678.02 273.97 C 672.18 268.17 665.02 263.54 660.68 256.39 C 655.03 246.97 654.04 234.36 659.85 224.78 C 665.03 216.13 673.67 210.17 682.43 205.54 C 701.46 196.75 722.36 193.47 742.38 187.66 C 762.29 182.74 781.05 174.30 799.65 165.85 C 820.10 156.91 842.89 154.23 865.00 156.38 C 901.78 159.71 936.97 171.65 972.97 179.15 C 992.70 183.80 1012.80 186.79 1032.98 188.62 C 1045.28 189.91 1057.65 189.54 1069.99 189.52 C 1104.46 188.55 1138.64 181.57 1171.14 170.18 C 1190.53 163.87 1209.25 155.72 1228.17 148.16 Z" />
<path fill="#d3d3d3" opacity="1.00" d=" M 1248.01 191.80 C 1262.68 189.49 1278.39 188.76 1292.33 194.73 C 1303.48 199.40 1311.81 208.96 1317.54 219.36 C 1325.76 233.62 1328.68 250.00 1334.71 265.17 C 1337.79 274.69 1342.78 283.39 1347.00 292.41 L 1347.00 301.53 C 1335.01 283.54 1328.23 262.83 1321.92 242.33 C 1317.81 230.15 1312.71 217.78 1303.51 208.50 C 1295.97 200.92 1285.73 196.18 1275.05 195.46 C 1252.81 193.76 1231.12 200.21 1209.83 205.70 C 1177.95 214.42 1146.25 223.86 1113.99 231.08 C 1099.39 234.14 1084.82 237.91 1069.85 238.53 C 1037.84 239.94 1005.86 236.61 974.15 232.62 C 940.87 228.57 907.78 223.12 874.46 219.48 C 859.16 218.07 843.76 216.46 828.41 217.77 C 817.15 219.28 808.02 226.81 797.37 230.20 C 788.13 233.25 778.68 235.58 769.34 238.26 C 764.82 239.51 760.49 242.85 759.58 247.66 C 758.53 254.23 760.03 260.87 761.80 267.18 C 765.94 281.07 771.19 294.59 775.66 308.37 C 778.16 317.55 781.07 326.64 782.90 335.99 C 785.88 352.22 786.78 368.96 784.32 385.33 C 781.32 403.72 773.19 421.11 761.84 435.83 C 756.60 442.91 749.82 448.80 745.53 456.58 C 737.52 470.40 728.78 484.05 716.94 494.96 C 692.96 517.54 661.39 529.91 629.84 537.66 C 594.54 545.97 558.20 549.16 522.00 549.85 C 509.69 550.74 497.34 549.93 485.01 550.26 C 478.00 550.48 471.00 550.03 464.01 549.75 C 440.68 549.51 417.31 548.47 394.02 550.27 C 371.36 551.80 348.86 554.98 326.26 557.12 C 300.26 559.90 274.14 561.45 248.02 562.47 C 237.00 562.53 225.98 562.86 214.97 563.28 C 192.15 563.28 169.30 563.32 146.54 565.23 C 103.30 568.56 61.04 579.26 19.61 591.61 C 13.28 593.66 6.60 593.97 0.00 593.88 L 0.00 589.23 C 12.43 589.67 24.03 584.85 35.82 581.73 C 74.94 570.57 114.98 561.87 155.69 559.64 C 183.10 557.86 210.59 558.89 238.02 557.76 C 265.75 557.26 293.44 555.42 321.03 552.72 C 343.04 550.74 364.93 547.47 386.98 545.92 C 409.27 543.77 431.69 544.30 454.05 544.65 C 479.35 545.52 504.70 545.81 530.00 544.72 C 551.80 544.21 573.58 542.38 595.16 539.26 C 630.08 533.81 665.52 525.11 695.45 505.54 C 710.34 495.73 723.26 482.93 732.82 467.86 C 738.51 459.23 742.87 449.62 750.06 442.05 C 761.05 429.99 770.24 415.99 775.30 400.38 C 782.12 380.65 782.15 359.13 778.24 338.78 C 774.03 315.26 764.73 293.12 757.63 270.42 C 755.27 262.30 753.07 253.57 755.17 245.16 C 756.84 238.70 762.91 234.58 769.13 233.13 C 781.81 229.52 794.95 226.90 806.74 220.75 C 813.45 217.32 820.28 213.58 827.94 212.92 C 837.25 212.08 846.65 212.33 855.98 212.83 C 877.07 214.48 898.07 217.20 918.99 220.25 C 962.17 226.06 1005.35 232.98 1048.98 234.10 C 1060.36 234.47 1071.80 233.79 1083.10 232.31 C 1118.44 225.89 1153.18 216.58 1187.68 206.66 C 1207.65 201.19 1227.55 195.18 1248.01 191.80 Z" />
<path fill="#d3d3d3" opacity="1.00" d=" M 1158.85 253.83 C 1176.19 246.97 1194.34 241.48 1213.08 240.53 C 1229.33 239.55 1246.32 242.77 1259.88 252.15 C 1268.54 258.05 1274.72 266.65 1281.53 274.45 C 1297.15 292.67 1311.23 312.13 1325.88 331.13 C 1332.43 339.58 1339.85 347.31 1347.00 355.26 L 1347.00 362.14 C 1335.09 350.58 1324.45 337.80 1314.52 324.51 C 1298.82 303.65 1282.80 283.02 1265.46 263.50 C 1257.67 255.52 1247.56 249.86 1236.68 247.38 C 1214.86 242.48 1192.16 247.30 1171.40 254.47 C 1155.71 259.46 1141.49 268.10 1125.70 272.79 C 1099.59 281.42 1072.60 288.28 1045.01 289.44 C 1026.44 290.19 1007.72 287.68 990.11 281.71 C 982.30 279.02 974.46 276.42 966.91 273.08 C 947.33 264.70 926.45 258.18 904.93 258.62 C 889.36 259.27 873.62 260.22 858.58 264.59 C 849.41 267.52 839.86 272.28 835.16 281.14 C 831.04 289.15 832.72 298.57 835.11 306.84 C 840.73 324.66 850.77 340.59 858.71 357.40 C 863.36 367.13 867.88 377.20 869.20 388.00 C 869.93 393.72 869.03 399.56 866.81 404.86 C 859.55 424.00 849.65 442.11 837.75 458.75 C 828.78 471.56 817.83 482.76 806.54 493.52 C 783.40 514.62 756.22 530.97 727.67 543.64 C 685.71 562.17 640.82 573.15 595.66 580.48 C 537.92 589.76 479.42 593.17 421.03 594.85 C 402.38 595.93 383.68 595.19 365.02 596.16 C 338.68 596.65 312.31 596.35 285.98 597.27 C 251.03 597.73 216.06 598.78 181.22 601.77 C 160.74 603.80 140.25 606.39 120.20 611.17 C 109.60 613.69 99.33 617.36 89.09 621.07 C 60.29 630.77 30.34 637.42 0.00 639.69 L 0.00 635.00 C 27.87 632.29 55.50 626.81 82.14 618.14 C 89.38 615.87 96.34 612.75 103.64 610.66 C 131.59 601.88 160.89 598.70 189.95 596.11 C 224.57 593.65 259.26 592.51 293.95 592.22 C 319.97 591.47 346.01 591.55 372.03 591.11 C 385.68 590.44 399.34 590.72 413.00 590.30 C 471.96 588.51 531.04 585.47 589.41 576.48 C 630.84 570.02 671.99 560.53 711.10 545.22 C 740.28 533.59 768.44 518.73 792.74 498.68 C 821.38 475.65 844.36 445.56 858.66 411.68 C 861.87 404.22 865.66 396.35 864.29 387.99 C 862.58 378.11 858.91 368.64 854.28 359.78 C 846.13 342.53 835.90 326.16 830.20 307.85 C 827.31 297.83 826.00 286.18 831.89 276.95 C 838.68 266.16 851.36 261.22 863.19 258.20 C 877.23 255.13 891.64 254.10 905.98 253.70 C 921.70 253.63 937.35 256.73 952.12 262.05 C 964.14 266.02 975.55 271.58 987.56 275.59 C 1005.90 282.22 1025.54 285.29 1045.04 284.47 C 1073.10 283.32 1100.44 275.91 1126.97 267.14 C 1137.97 263.63 1148.15 258.10 1158.85 253.83 Z" />
<path fill="#d3d3d3" opacity="1.00" d=" M 1109.07 316.18 C 1133.85 304.32 1160.27 294.20 1188.06 293.45 C 1209.07 292.50 1230.25 298.53 1247.64 310.34 C 1262.82 320.53 1275.35 334.08 1286.58 348.39 C 1308.24 376.31 1326.04 406.96 1347.00 435.38 L 1347.00 443.44 C 1324.29 413.93 1305.82 381.42 1283.02 351.97 C 1273.32 339.46 1262.49 327.71 1249.86 318.10 C 1235.65 307.41 1218.65 300.17 1200.84 298.67 C 1174.04 296.51 1147.57 304.42 1123.30 315.13 C 1113.92 318.95 1105.23 324.29 1095.68 327.71 C 1067.71 338.93 1036.59 340.96 1007.04 335.79 C 987.17 332.94 967.94 326.85 948.14 323.64 C 938.20 322.22 926.33 322.02 918.92 329.98 C 910.70 339.48 908.04 352.81 909.04 365.08 C 910.14 377.84 918.79 387.94 923.59 399.38 C 927.28 407.25 927.26 416.47 924.48 424.61 C 920.67 435.40 913.32 444.40 905.93 452.93 C 884.68 478.30 863.86 504.05 841.27 528.25 C 820.78 550.11 797.84 570.24 771.08 584.08 C 740.14 600.59 705.61 608.93 671.15 614.17 C 608.92 623.45 545.86 624.31 483.07 625.36 C 458.33 625.03 433.69 627.45 409.01 628.84 C 297.98 636.19 186.99 644.27 76.01 652.41 C 69.55 652.79 63.61 655.51 57.62 657.68 C 38.85 664.14 19.50 668.74 0.00 672.36 L 0.00 667.13 C 22.31 663.43 44.26 657.54 65.40 649.51 C 71.02 647.43 77.07 647.40 82.97 646.96 C 110.31 644.86 137.66 642.94 165.01 640.93 C 263.67 633.96 362.31 626.57 461.04 620.74 C 476.71 620.05 492.41 620.65 508.08 620.11 C 522.36 619.39 536.67 619.68 550.96 619.03 C 595.78 617.50 640.71 614.72 684.92 606.88 C 722.62 600.13 760.21 588.13 791.64 565.68 C 801.70 558.90 810.70 550.75 819.80 542.77 C 843.48 520.62 863.73 495.20 884.68 470.54 C 893.40 459.97 902.45 449.66 910.91 438.87 C 917.35 430.05 923.24 419.29 921.13 407.99 C 918.38 396.03 909.77 386.55 906.18 374.90 C 902.61 364.65 903.03 353.35 906.36 343.10 C 909.10 333.64 914.84 324.16 924.35 320.35 C 933.14 317.06 942.85 317.89 951.94 319.26 C 968.82 321.99 985.20 327.11 1002.03 330.08 C 1021.99 333.57 1042.57 335.12 1062.64 331.61 C 1078.84 329.08 1094.52 323.68 1109.07 316.18 Z" />
<path fill="#d3d3d3" opacity="1.00" d=" M 1140.64 335.63 C 1155.18 326.11 1171.23 317.12 1189.04 316.54 C 1205.76 315.58 1221.82 323.00 1234.46 333.49 C 1248.64 345.35 1261.13 359.27 1271.27 374.73 C 1275.70 381.80 1279.57 389.55 1280.38 397.97 C 1280.91 403.01 1279.72 408.47 1276.17 412.24 C 1271.75 416.85 1265.44 419.55 1259.06 419.66 C 1246.91 420.10 1234.93 417.69 1223.00 415.81 C 1208.68 413.53 1194.42 410.81 1180.01 409.23 C 1168.38 408.13 1156.71 407.51 1145.04 407.24 C 1132.68 406.47 1120.26 406.93 1107.96 408.17 C 1096.83 409.23 1086.57 413.89 1075.94 416.95 C 1054.41 423.46 1032.08 427.15 1010.87 434.73 C 1001.53 437.72 994.41 444.87 988.06 452.02 C 976.80 465.15 971.38 482.15 968.72 498.97 C 966.81 510.54 966.17 522.28 966.37 533.99 C 966.08 553.38 967.59 572.73 968.49 592.09 C 969.68 606.36 969.44 620.71 969.31 635.02 C 968.47 647.93 967.42 661.03 963.29 673.38 C 958.88 687.47 950.72 700.91 938.38 709.37 C 927.55 716.48 916.45 723.22 906.19 731.15 C 895.97 738.91 886.31 748.27 881.27 760.29 C 876.26 771.80 874.13 784.26 870.10 796.10 C 867.48 803.47 865.82 811.25 862.06 818.16 C 856.19 828.08 845.10 833.34 834.43 836.45 C 818.33 840.69 801.55 841.09 785.01 841.38 C 772.63 841.12 760.33 842.82 747.96 842.65 C 718.97 844.33 689.88 842.79 661.01 839.95 C 648.36 838.56 635.68 837.41 622.96 836.95 C 588.17 835.41 553.75 842.83 518.98 842.41 C 493.27 842.09 467.71 838.62 442.00 838.25 C 407.01 836.55 371.98 838.64 337.03 840.35 C 322.30 840.57 307.44 838.19 293.92 832.19 C 281.23 827.02 270.08 818.92 259.15 810.80 C 243.80 799.28 228.61 787.39 211.71 778.16 C 194.75 768.43 176.30 761.51 157.46 756.42 C 137.10 750.80 116.05 748.55 95.18 745.65 C 76.52 743.01 57.80 740.82 39.01 739.28 C 26.04 738.11 13.00 738.57 0.00 738.65 L 0.00 733.87 C 43.02 731.75 85.61 739.64 128.08 745.20 C 163.15 750.60 197.60 762.16 227.39 781.68 C 243.69 792.11 258.47 804.68 274.42 815.60 C 288.10 824.87 303.46 832.29 320.01 834.36 C 335.28 836.68 350.69 834.40 366.02 833.98 C 391.37 833.10 416.77 832.07 442.14 833.34 C 461.14 833.75 480.06 835.69 499.04 836.68 C 522.37 838.49 545.85 837.17 569.06 834.36 C 590.30 832.16 611.69 831.56 633.03 832.55 C 649.73 833.68 666.35 835.77 683.04 837.01 C 713.32 839.31 743.72 838.44 773.99 836.58 C 790.55 836.32 807.26 836.60 823.64 833.71 C 834.59 831.67 846.21 828.46 854.21 820.23 C 859.60 814.92 861.11 807.27 863.54 800.41 C 867.42 789.23 870.06 777.68 873.68 766.43 C 876.72 756.88 881.38 747.69 888.38 740.42 C 901.19 726.76 917.38 716.97 933.00 706.91 C 938.87 702.98 944.32 698.28 948.41 692.49 C 956.94 680.71 961.03 666.35 962.86 652.09 C 966.60 622.83 963.39 593.34 962.13 564.03 C 961.29 549.71 961.29 535.35 961.57 521.01 C 962.42 505.60 964.09 490.01 969.40 475.41 C 974.28 460.92 983.12 447.69 995.04 438.05 C 1003.26 431.02 1013.99 428.18 1024.17 425.25 C 1040.03 420.99 1056.07 417.44 1071.87 412.94 C 1082.28 410.09 1092.24 405.54 1102.99 403.98 C 1115.85 401.80 1128.95 402.23 1141.95 402.30 C 1163.43 402.49 1184.91 404.11 1206.06 407.91 C 1219.50 410.11 1232.89 412.70 1246.43 414.29 C 1252.08 414.76 1257.85 415.20 1263.47 414.19 C 1269.51 412.72 1275.47 407.69 1275.58 401.08 C 1275.74 392.08 1271.03 383.93 1266.43 376.52 C 1257.29 362.71 1246.16 350.22 1233.67 339.36 C 1220.69 327.99 1203.62 319.71 1185.99 321.64 C 1167.73 323.76 1151.88 333.97 1137.00 344.04 C 1125.42 351.37 1114.00 360.37 1100.01 362.22 C 1081.06 364.01 1061.91 364.31 1042.96 362.33 C 1020.39 360.12 998.87 351.15 976.03 351.13 C 969.62 351.16 962.55 351.09 957.09 354.94 C 952.07 358.48 952.27 366.06 955.15 370.90 C 960.90 379.66 970.64 385.15 975.52 394.56 C 977.89 398.77 977.05 403.76 976.47 408.32 C 973.54 431.86 961.91 453.28 948.13 472.20 C 924.51 503.30 893.38 527.86 860.23 548.12 C 851.72 553.43 845.69 561.65 838.51 568.51 C 816.71 592.58 792.09 614.54 763.58 630.38 C 744.59 641.02 724.06 648.80 702.88 653.78 C 683.57 658.44 663.69 659.79 643.95 661.35 C 560.48 667.71 476.71 671.12 393.00 668.56 C 360.97 667.72 328.97 665.96 296.96 664.70 C 270.73 663.90 244.34 663.66 218.30 667.34 C 196.64 670.39 175.65 676.93 154.01 680.12 C 130.94 684.24 107.44 684.46 84.17 686.78 C 75.00 687.73 65.79 688.44 56.65 689.73 C 37.62 692.67 19.01 697.82 0.00 700.83 L 0.00 696.13 C 17.67 692.39 35.33 688.51 53.11 685.28 C 75.97 682.02 99.04 680.60 122.07 678.97 C 143.84 677.40 165.37 673.46 186.62 668.55 C 208.32 663.05 230.65 660.12 253.03 659.46 C 273.35 659.08 293.69 659.36 313.98 660.47 C 356.65 662.31 399.33 664.45 442.06 664.48 C 497.76 664.74 553.45 662.53 609.02 658.89 C 628.69 657.44 648.40 656.35 668.02 654.29 C 706.81 651.09 744.70 637.88 777.09 616.28 C 798.71 601.64 818.00 583.76 835.48 564.42 C 842.53 557.15 849.00 549.02 857.84 543.81 C 886.24 526.16 913.28 505.66 935.05 480.10 C 951.89 460.85 965.43 438.07 970.83 412.87 C 971.55 407.61 973.34 401.90 971.11 396.80 C 965.55 387.07 954.79 381.45 949.74 371.35 C 947.36 365.27 947.02 357.02 952.38 352.37 C 958.78 346.71 967.81 346.06 975.96 346.27 C 997.51 346.04 1017.94 353.96 1039.09 356.83 C 1057.93 359.48 1077.06 358.96 1095.98 357.66 C 1102.91 357.30 1109.63 355.04 1115.62 351.57 C 1124.12 346.53 1132.42 341.12 1140.64 335.63 Z" />
<path fill="#d3d3d3" opacity="1.00" d=" M 1183.21 348.44 C 1187.81 347.21 1193.19 346.84 1197.34 349.60 C 1205.25 354.80 1212.03 361.51 1218.54 368.33 C 1220.97 371.04 1223.64 373.68 1225.17 377.04 C 1226.40 380.43 1222.87 383.26 1219.92 384.02 C 1212.15 386.20 1203.94 385.47 1196.02 384.74 C 1186.39 383.53 1176.69 383.05 1167.00 383.40 C 1158.59 383.64 1149.39 383.75 1142.16 378.79 C 1139.43 377.32 1139.65 372.75 1142.41 371.40 C 1149.83 366.70 1159.63 368.12 1166.74 362.72 C 1172.97 358.81 1176.26 351.24 1183.21 348.44 M 1180.98 355.99 C 1175.85 361.21 1170.99 367.26 1163.90 369.85 C 1157.90 371.94 1151.46 372.55 1145.69 375.30 C 1149.88 377.18 1154.36 378.55 1159.00 378.49 C 1170.67 378.56 1182.41 377.83 1194.02 379.55 C 1202.78 380.33 1212.12 381.86 1220.53 378.46 C 1213.43 369.60 1205.30 361.47 1196.10 354.80 C 1191.74 351.23 1184.74 351.84 1180.98 355.99 Z" />
<path fill="#d3d3d3" opacity="1.00" d=" M 1015.43 377.62 C 1019.68 375.45 1024.52 377.20 1028.85 378.22 C 1037.07 380.56 1045.50 382.07 1054.03 382.76 C 1056.32 382.91 1060.51 383.70 1059.01 386.98 C 1053.71 396.90 1042.44 404.66 1030.88 403.24 C 1022.86 401.85 1015.29 396.61 1012.27 388.90 C 1010.59 385.01 1012.28 380.23 1015.43 377.62 M 1018.13 381.92 C 1017.33 383.22 1016.73 384.63 1016.09 386.00 C 1018.81 391.72 1023.78 396.45 1030.05 397.93 C 1038.71 400.13 1047.65 394.83 1052.32 387.72 C 1043.22 386.75 1034.24 384.90 1025.41 382.55 C 1023.03 382.14 1020.47 381.06 1018.13 381.92 Z" />
<path fill="#d3d3d3" opacity="1.00" d=" M 1057.02 446.96 C 1084.51 437.31 1113.09 430.66 1142.02 427.14 C 1156.64 425.12 1171.30 427.68 1185.82 429.34 C 1208.50 431.96 1231.16 435.26 1253.35 440.73 C 1272.05 445.24 1290.43 451.49 1307.40 460.61 C 1321.71 468.03 1334.70 477.71 1347.00 488.05 L 1347.00 494.50 C 1333.12 482.85 1318.65 471.73 1302.38 463.56 C 1269.09 446.94 1232.01 440.11 1195.40 435.46 C 1183.87 434.04 1172.35 432.59 1160.79 431.59 C 1146.40 430.38 1132.14 433.30 1118.04 435.76 C 1097.17 439.98 1076.38 445.00 1056.40 452.44 C 1046.13 456.44 1035.21 460.28 1027.30 468.29 C 1008.44 489.46 996.46 517.38 997.10 545.98 C 996.45 569.11 1002.35 591.70 1008.20 613.88 C 1013.24 633.25 1019.24 652.78 1018.84 673.02 C 1019.16 684.13 1016.82 695.49 1011.01 705.06 C 1002.74 719.88 988.11 729.79 973.17 737.04 C 963.29 741.63 953.79 746.96 944.32 752.30 C 935.88 757.23 927.47 762.58 920.99 770.00 C 915.81 775.88 912.38 783.27 911.30 791.03 C 909.09 805.96 909.47 821.10 908.04 836.10 C 907.46 842.31 903.98 848.28 898.52 851.41 C 890.33 856.21 880.81 857.92 871.56 859.41 C 849.49 862.31 827.21 863.16 805.02 864.81 C 782.97 865.93 760.96 867.70 738.95 869.39 C 709.95 871.79 681.09 875.87 651.99 877.03 C 634.34 877.82 616.64 877.88 599.00 876.70 C 582.93 875.97 566.96 873.89 550.95 872.33 C 529.04 870.28 507.00 868.77 485.00 870.15 C 465.91 870.95 446.90 873.12 427.99 875.84 C 413.78 878.22 399.43 879.60 385.04 880.13 C 360.89 880.61 336.73 877.51 313.37 871.43 C 278.89 862.26 246.68 846.43 215.34 829.68 C 183.73 812.74 152.47 794.83 118.86 782.03 C 87.73 769.99 54.43 763.29 21.01 763.61 C 14.00 763.77 7.01 764.40 0.00 764.71 L 0.00 759.27 C 6.02 759.68 12.01 758.83 18.02 758.69 C 31.38 758.28 44.73 759.40 57.99 760.97 C 96.11 766.02 132.17 780.64 166.29 797.84 C 202.53 816.21 237.29 837.63 275.00 852.98 C 312.40 868.95 353.36 877.33 394.07 874.74 C 410.80 873.96 427.24 870.57 443.86 868.74 C 466.46 866.22 489.20 864.28 511.96 864.82 C 528.00 865.57 544.07 866.26 560.00 868.33 C 580.29 870.57 600.65 872.42 621.08 872.58 C 655.09 873.20 688.96 869.41 722.73 865.87 C 744.78 863.90 766.87 862.36 788.96 860.81 C 814.02 859.07 839.16 858.16 864.14 855.42 C 873.60 854.09 883.30 852.97 892.13 849.08 C 897.42 846.75 902.51 842.41 903.09 836.29 C 903.98 826.93 904.27 817.52 904.69 808.13 C 905.43 797.94 905.85 787.44 909.93 777.92 C 913.45 769.46 920.33 763.00 927.43 757.50 C 942.49 746.50 959.32 738.31 975.95 730.01 C 990.03 722.49 1003.49 711.80 1009.63 696.61 C 1014.43 684.75 1015.13 671.54 1013.20 658.99 C 1011.32 643.99 1007.14 629.43 1003.32 614.86 C 997.20 592.41 991.78 569.43 992.16 546.02 C 991.99 529.32 995.51 512.60 1002.38 497.38 C 1008.21 485.19 1015.35 473.44 1024.80 463.72 C 1033.94 455.54 1045.70 451.21 1057.02 446.96 Z" />
<path fill="#d3d3d3" opacity="1.00" d=" M 1147.39 461.48 C 1157.47 459.48 1167.61 456.03 1178.01 457.76 C 1206.12 461.69 1232.76 472.38 1258.08 484.86 C 1290.34 501.38 1320.42 522.23 1347.00 546.89 L 1347.00 560.11 C 1321.07 535.61 1292.13 514.20 1260.67 497.32 C 1234.33 483.49 1206.37 471.95 1176.84 467.28 C 1169.09 465.75 1161.56 468.66 1154.03 469.99 C 1135.12 473.83 1115.99 478.49 1099.06 488.08 C 1091.62 492.36 1084.72 497.56 1078.50 503.46 C 1063.71 518.16 1055.48 538.44 1053.18 558.96 C 1050.63 582.02 1053.25 605.36 1058.31 627.91 C 1064.44 654.70 1073.45 680.75 1083.93 706.13 C 1086.75 711.67 1088.13 718.47 1085.34 724.30 C 1081.83 731.37 1076.26 737.27 1069.90 741.87 C 1056.93 751.88 1042.26 759.33 1027.62 766.57 C 1008.52 775.75 988.81 783.56 968.96 790.96 C 964.32 792.56 960.24 796.19 959.17 801.14 C 957.05 811.03 959.25 821.15 961.17 830.89 C 964.00 845.72 967.70 860.76 966.11 875.97 C 965.31 884.45 961.75 892.68 955.87 898.87 C 950.36 904.70 942.74 907.93 935.20 910.22 C 917.93 915.34 899.76 913.36 882.02 913.38 C 831.57 911.51 781.01 912.04 730.65 915.56 C 686.13 918.72 641.56 921.36 596.94 922.52 C 583.63 922.48 570.13 923.81 557.01 920.94 C 542.09 918.05 527.88 912.50 513.20 908.69 C 491.32 902.67 468.63 899.70 445.97 899.13 C 428.34 898.15 410.64 898.40 393.03 899.62 C 378.04 900.72 363.00 900.81 347.98 901.35 C 334.24 900.90 320.45 900.78 306.79 899.08 C 270.31 894.93 234.55 883.67 202.66 865.39 C 180.42 852.74 160.25 836.77 141.47 819.48 C 137.75 815.97 133.58 812.79 128.67 811.18 C 110.91 805.12 92.64 800.43 74.03 797.90 C 49.54 794.16 24.71 794.15 0.00 794.57 L 0.00 784.91 C 22.75 784.13 45.58 784.64 68.21 787.22 C 90.66 790.02 112.86 795.07 134.14 802.77 C 141.20 805.46 146.47 811.09 152.14 815.85 C 161.88 824.56 171.92 832.95 182.50 840.62 C 214.97 864.56 253.16 880.50 292.90 887.28 C 312.41 890.49 332.23 891.61 351.99 891.40 C 371.68 891.47 391.30 889.60 410.98 889.14 C 421.97 888.51 432.97 889.22 443.97 889.33 C 471.14 889.74 498.30 893.70 524.31 901.64 C 539.39 905.95 554.26 911.67 570.02 912.97 C 578.01 913.76 586.05 913.15 594.06 912.83 C 626.40 912.02 658.72 910.51 691.02 908.48 C 715.33 906.82 739.65 905.08 764.00 903.91 C 791.99 902.60 820.03 902.43 848.05 902.71 C 860.35 903.28 872.67 903.21 884.98 903.55 C 896.30 903.68 907.66 904.81 918.96 903.48 C 928.97 902.41 939.50 900.13 947.36 893.42 C 954.31 887.41 956.66 877.82 956.68 868.98 C 956.72 850.30 950.39 832.41 948.61 813.94 C 948.10 804.60 948.79 793.91 956.07 787.10 C 962.25 781.68 970.67 780.22 978.05 777.07 C 989.25 772.77 1000.38 768.28 1011.27 763.25 C 1030.07 754.92 1048.69 745.71 1065.09 733.16 C 1069.34 729.71 1073.75 725.99 1076.04 720.89 C 1077.68 717.05 1076.03 712.93 1074.65 709.31 C 1059.02 670.84 1045.91 630.70 1042.88 589.05 C 1041.31 562.91 1044.53 535.29 1058.77 512.73 C 1065.95 500.91 1076.01 491.03 1087.67 483.63 C 1105.65 471.92 1126.60 465.96 1147.39 461.48 Z" />
<path fill="#d3d3d3" opacity="1.00" d=" M 887.31 580.24 C 895.74 577.72 904.66 580.98 912.18 584.80 C 920.05 588.70 924.31 597.47 924.38 606.01 C 924.37 617.85 920.08 629.05 917.29 640.41 C 912.78 655.44 908.86 671.33 898.73 683.75 C 890.58 693.49 879.65 700.29 869.13 707.16 C 860.52 712.70 851.33 717.27 842.66 722.71 C 834.62 727.71 825.93 731.65 818.31 737.32 C 808.62 744.54 802.40 755.98 801.14 767.96 C 799.98 775.88 800.81 784.20 797.99 791.82 C 795.89 797.07 789.90 798.60 784.92 799.67 C 768.84 802.88 752.34 802.27 736.04 802.24 C 715.21 801.24 694.22 801.18 673.63 797.45 C 632.40 791.15 590.32 792.40 549.12 798.35 C 527.76 800.96 506.49 804.55 484.98 805.89 C 459.58 807.98 434.29 803.90 409.00 802.11 C 387.99 800.13 367.01 797.93 346.01 795.89 C 333.67 794.33 321.29 793.00 309.08 790.57 C 303.96 789.48 298.61 788.07 294.65 784.43 C 282.27 773.09 268.32 763.56 253.61 755.49 C 235.97 746.63 217.52 739.25 198.35 734.45 C 166.37 725.63 133.17 723.02 100.49 718.16 C 99.48 714.67 103.56 713.91 106.03 713.35 C 115.67 711.62 125.21 708.97 135.05 708.62 C 145.75 708.08 156.38 706.67 167.00 705.24 C 182.18 703.10 196.71 697.44 212.05 696.30 C 228.70 694.63 245.36 697.15 262.02 697.28 C 293.05 697.61 324.05 695.77 354.98 693.42 C 377.62 691.84 400.23 689.19 422.95 689.37 C 430.72 689.27 438.31 691.18 445.96 692.29 C 458.28 694.19 470.57 696.42 482.97 697.78 C 491.64 698.71 500.23 700.65 508.99 700.64 C 536.32 700.88 563.65 700.84 590.99 700.66 C 609.00 700.57 627.03 700.71 645.02 699.73 C 667.36 699.50 689.66 698.12 711.92 696.30 C 727.50 694.85 742.99 692.21 758.11 688.13 C 773.54 683.88 788.26 677.30 802.02 669.15 C 816.84 660.06 829.93 648.36 841.30 635.26 C 850.32 624.46 858.33 612.89 866.14 601.22 C 871.84 593.16 877.85 584.14 887.31 580.24 M 882.82 588.89 C 874.29 596.97 868.28 607.18 861.69 616.79 C 853.17 628.70 844.38 640.52 833.69 650.60 C 822.57 661.85 809.59 671.16 795.69 678.65 C 769.26 692.55 739.53 698.96 709.95 701.35 C 689.01 703.41 667.97 704.12 646.96 704.69 C 638.65 704.93 630.35 705.54 622.03 705.37 C 583.67 705.79 545.30 706.00 506.93 705.57 C 483.11 703.56 459.53 699.41 435.93 695.68 C 422.74 693.14 409.23 694.32 395.93 695.10 C 368.29 697.09 340.69 699.71 313.01 701.05 C 304.35 701.76 295.65 701.39 287.00 702.06 C 271.64 702.92 256.28 701.84 240.93 701.33 C 225.93 699.97 210.65 700.37 195.98 704.01 C 183.81 707.09 171.56 709.97 159.07 711.39 C 146.63 713.36 133.94 713.03 121.52 715.18 C 123.34 715.95 125.23 716.68 127.21 716.94 C 141.81 718.83 156.45 720.54 170.91 723.31 C 204.35 729.37 237.41 739.71 266.68 757.27 C 277.70 764.02 288.13 771.73 297.72 780.39 C 301.63 783.97 306.97 785.11 312.01 786.06 C 335.16 790.28 358.65 791.99 382.01 794.64 C 407.37 796.63 432.65 799.58 458.03 801.31 C 482.15 802.51 506.16 799.08 529.99 795.83 C 568.37 790.41 607.22 786.16 645.98 789.36 C 663.74 790.40 681.17 794.36 698.93 795.44 C 719.58 796.85 740.29 797.85 760.99 797.27 C 769.99 796.57 779.16 796.46 787.87 793.85 C 789.99 793.21 792.39 792.33 793.20 790.05 C 796.04 783.79 795.20 776.72 795.91 770.06 C 796.89 758.73 800.86 747.19 808.97 738.97 C 814.45 733.15 821.43 729.16 828.31 725.26 C 847.57 713.66 867.92 703.66 885.56 689.57 C 895.52 681.68 902.56 670.61 906.51 658.61 C 910.55 645.97 914.28 633.23 917.55 620.37 C 919.29 612.47 921.06 603.51 916.90 596.05 C 912.25 588.62 903.25 585.47 894.97 584.33 C 890.38 583.51 886.02 585.79 882.82 588.89 Z" />
<path fill="#d3d3d3" opacity="1.00" d=" M 335.37 722.74 C 365.24 720.71 395.09 725.49 424.96 724.03 C 431.67 723.20 438.43 723.84 445.03 725.18 C 509.39 734.87 575.15 740.03 639.92 731.14 C 669.76 727.45 699.81 720.90 729.98 724.72 C 736.68 725.45 744.03 726.96 748.70 732.25 C 752.57 736.46 750.53 743.26 746.49 746.60 C 738.15 753.87 727.23 757.24 716.61 759.55 C 687.83 765.89 658.17 763.78 628.99 762.60 C 609.28 762.00 589.65 763.85 570.03 765.47 C 544.07 767.68 518.02 766.06 492.02 766.20 C 461.94 766.17 431.89 769.62 401.81 767.71 C 369.53 766.58 336.03 759.84 309.39 740.61 C 305.97 737.79 301.89 735.61 299.27 731.95 C 300.19 729.76 302.61 729.23 304.64 728.62 C 314.71 725.88 324.95 723.60 335.37 722.74 M 307.88 732.92 C 327.81 749.56 353.53 757.61 378.94 760.88 C 423.15 766.76 467.63 760.05 511.98 761.40 C 532.34 761.81 552.75 762.37 573.05 760.35 C 596.92 757.92 620.98 756.75 644.96 758.38 C 655.97 758.51 666.97 759.74 677.98 758.81 C 693.89 758.77 709.82 756.68 725.11 752.25 C 731.85 749.89 738.87 747.11 743.95 741.90 C 745.76 740.30 745.59 737.80 745.77 735.61 C 737.64 729.11 726.83 729.21 716.97 728.69 C 686.65 727.57 656.97 734.91 626.94 737.63 C 563.96 744.67 500.39 738.61 437.99 729.15 C 428.38 727.73 418.70 729.88 409.05 729.06 C 390.70 728.79 372.36 727.89 354.03 726.86 C 338.46 726.62 322.88 728.76 307.88 732.92 Z" />
</g>
</svg>
